<?xml version="1.0" encoding="utf-8"?>
<!-- Generator: Adobe Illustrator 22.0.1, SVG Export Plug-In . SVG Version: 6.00 Build 0)  -->
<svg version="1.1" id="Layer_1" xmlns="http://www.w3.org/2000/svg" xmlns:xlink="http://www.w3.org/1999/xlink" x="0px" y="0px"
	 viewBox="0 0 612 792" style="enable-background:new 0 0 612 792;" xml:space="preserve">
<style type="text/css">
	.st0{fill:#66342E;}
	.st1{fill:#A3B95A;}
	.st2{fill:#7EAA58;}
	.st3{fill:#784533;}
	.st4{fill:#4F2322;}
	.st5{fill:#59902D;}
	.st6{fill:#ABB942;}
	.st7{fill:#6B9852;}
	.st8{fill:#B8C572;}
	.st9{fill:#487C48;}
	.st10{fill:#948236;}
	.st11{fill:#4D833A;}
	.st12{fill:#E1E987;}
	.st13{fill:#57884D;}
	.st14{fill:#A0C77F;}
</style>
<g>
	<g>
		<path class="st0" d="M309.8,605.4c-4.9-1.3-7.3-5.3-10-9.1c0.5-2.7,2.2-4.4,4.7-5.2c1.4-0.5,2.3-1.2,2.2-2.9
			c-0.3-5.2-0.1-10.5-1-15.6c-0.5-2.7-0.4-3.8,2.3-4.7c3.4-1.1,5.8-2.9,2.9-7.2c-1.6-2.3-1-5.4-1.1-8.3c-0.1-4.3-0.1-8.2,6.1-6.8
			c0,0,0.2-0.5,0.4-1.2c-3.8-0.4-7.2-1.7-10.4-3.5c-0.6-0.3-2.1-1-0.9-2.2c0.8-0.8,1.5-0.3,1.8,0.7c0.9,2.2,2,1.4,2.7,0
			c0.8-1.8,3.3-3.1,0.9-5.9c-1.2-1.4-1.8-4.8,1.1-6.5c1.4-0.8,0.6-1.2-0.2-2.1c-1.9-2-3.9-4.3-3.9-7c0-2.9,5.8-5.5,9.1-5.3
			c9.6,0.7,12.3,2.1,9.3-9.6c4.3-0.1,4.3-0.1,6.1-1.8c-6.9,1-8.3-0.8-6-7.3c2.3,0.2,2.8,2.5,4.1,3.8c1.5,1.5,2.8,1.9,4.7,1.2
			c1.6,6.2,5.6,10.7,10.3,14.8c0.6,2.4-2.6,3.5-2,5.9c-3.9,0.6-7.7,1.3-12.9,2.1c6,2.4,10.4-0.4,14.8,0.1l0.1,0.1
			c0.3,0.3,0.6,0.6,0.9,0.9c0,0,0.1,0.1,0.1,0.1c0.4,2.3,3.3,1.5,4,3.4c-1.5,1.5-5.1,0-5,3.6c1,3.2-2.1,3.7-3.8,5.2
			c2.3,1.7,4.8,0.2,6.9,1.3c-3.2,3.3-4.3,9.2-10.9,6.8c0.9,2.4,2.4,1.7,3.6,1.7c2.4-0.1,3.2,1,3.2,3.3c-0.1,5.3,0,10.5,0,15.8
			c-2.3,1.7-4.7,1-7.1,0.4c-6.6-1.7-13.2-1.7-20.2-1.3c1.7,2.2,4,2.3,5.7,1.6c4.3-1.6,8.1-0.1,12.1,0.8c2.8,0.6,5.6,2.4,8.6,0.4
			c0.7,5.2-1.8,10.8,2.2,15.9c-3.4,0.5-4.2,4.1-7.1,5.6c-8,4.1-15.9,8.5-23.8,12.9C312.2,601.5,310.4,602.8,309.8,605.4z
			 M322.3,556.4c-4.9-0.5-7.1,1.9-8.8,4.9C316.7,560.7,319.6,559.4,322.3,556.4z M319.4,579.8c-3.4,0.4-6.8,0.5-9.8,2.5
			C313,582.3,316.5,582.2,319.4,579.8z M315.5,537.1c-0.3,0.2-0.5,0.3-0.8,0.4c0.3,0.1,0.5,0.4,0.8,0.4c0.3,0,0.5-0.3,0.8-0.4
			C316,537.4,315.8,537.2,315.5,537.1z"/>
		<path class="st1" d="M335,176c4.9,8.5,11.5,15.7,17.7,23.1c4.8,5.8,10.1,11.2,15.1,16.8c0,1.5,1.3,2.1,2.1,3.1
			c0.3,1.1,1.1,1.3,2,1.1l-0.1,0c0,0.7,0.3,1.1,1.1,1l0-0.1c0,0.7,0.3,1.2,1.1,1l0-0.1c-0.2,0.9-0.2,1.8,1,2.1l0-0.1
			c-0.1,1.2-0.2,2.3,1,3.1c0,0,0-0.1,0-0.1c0.1,0.9,0.3,1.9,0.4,2.8c-2.3,1.6-1,4-1.4,6.1c-9.6,3.2-13.8,11.1-17.1,19.7
			c5.1-6.8,10.4-13.4,17.2-18.6c3.3,7.3,2.3,15.5,5,23c-3.7,2.5-7.5,4.9-11.1,7.6c-3.4,2.5-5.6,5.8-4.4,12
			c2.1-9.2,8.6-12.6,14.5-16.5c3.5,1.9,2,5.7,2.8,8.5c3,9.9,4.2,20.2,5.1,30.4c-7-1.6-12.8-5-17-11c-0.7-1-1.3-1.9-2.7-1.5
			c-4.2-6.9-6.5-14.6-8.3-22.4c-1-3.8-2.2-7.5-4-11c-5.8-8.2-10.5-17.1-15.4-25.8c-0.9-1.6-2.7-3-2.7-5.1c0.4-0.4,0.8-0.8,1.1-1.1
			c0.7,1,1.3,2,2,3c0.2,0.1,0.3,0.3,0.5,0.4c-0.1-0.2-0.3-0.3-0.4-0.5c0-1.3-0.1-2.6-0.1-3.9c1.9-2.8,0.9-5.6,0.4-8.5
			C338.2,201.7,334.7,189.2,335,176z M348.5,237c0.4-9,4-17.1,6.8-25.4C349.4,219.1,347,227.5,348.5,237z M349.4,239.7
			c0,0.1-0.1,0.2-0.1,0.3c0.2,0,0.3,0,0.5,0.1c0-0.1,0-0.3-0.1-0.4C349.6,239.7,349.5,239.7,349.4,239.7z"/>
		<path class="st2" d="M370,219c-0.8-1-2.1-1.6-2.1-3.1c0,0,0,0,0,0c1.3-0.2,2.8,0.8,3.8-1.2c-1.3-0.8-2.4,0.4-3.6,0.3
			c2.9-5.8,5.9-11.5,8.7-17.3c0.6-1.2,3-3.2-0.7-3.8c0.8-3.2,1-6.2-1.2-9.1c-1.4-1.8-1-4,0.2-6c2,0,3.9,0,5.9,0
			c0,0.3,0.1,0.6,0.1,0.9c0.5,2.4,2.4,2.3,4.2,2.3c2.3,0,4.6-0.1,6.8-0.2c2.7-0.3,5.4-0.7,8.1-1c3.6,0.5,7.3-2.5,10.9,0.2
			c0.7,2.6,2.8,3.8,5,4.9c5.5,2,4-2.8,4.9-5.1c0.7-1.8-0.8-4.5,2.5-5c0.3-0.1,0.4,0,0.6,0.2c0.2,0.3,0.5,0.5,0.7,0.8
			c0.9,1.6,2.3,2.2,4.1,2c3.2-0.4,6.2,0.6,9.2,1.3c0.3,0.2,0.7,0.5,1,0.7c0,0,0,0,0,0c0,2.5-1.7,4.7-1,7.2c1.2,4.2,1.2,8.3,0.1,12.5
			c-0.4,1.5-1,3.8,1.7,4.3c-0.4,1-0.7,1.9-1.1,2.9c-0.5,0.5-1,0.9-1.3,1.4c-3.6,6.4-6.8,13-14.7,15.3c-0.1,0,0.1,0.9,0.1,1.4
			c-0.3,0.4-0.6,0.7-0.9,1.1c-0.1,0.4-0.2,0.7-0.3,1.1c-1,0.9-1,1.8,0,2.7c0.1,0.4,0.1,0.8,0.2,1.2c0.3,2.1-0.7,4.7,2,6
			c0,2.3,1.8,3.6,3.2,5.1c-0.3,0.9-1.4,1.5-1,2.7c-0.4,2.7-0.8,5.5-1.3,8.2c-4.4-0.7-4.2-4.5-4.8-7.5c-1-5.6-0.6-11.7-2.4-17
			c-1.3-3.8,0.3-9.1-4.6-11.6c-0.4-0.4-0.7-0.7-1.1-1.1c0-0.3,0-0.6,0-0.9c2.5-0.3,2.1-2.3,2-3.8c-0.5-6-1.2-12-1.9-18
			c-0.3-2.3-1.5-4-4.2-4.1c-2-0.7-4-1.4-5.9-2c-1-0.8-1.6-2.4-3.5-1.4c-2.1,1.1-4,0.1-5.4-1.6c-2.5,0.2-5.4-1.1-7.1,1.9
			c-4.8,1.8-6.1,4.4-4.6,8.9c0.4,1.2,0.2,2.6,0.7,3.8c1.4,3.5,0.2,7.9,4,10.4c-1,4.3-2.1,8.6-4.3,12.5c-1.5,2.7-3.1,5.5-3,8.7
			c-1.3-1.2-1-3.4-2.7-4.3c0,0,0,0.1,0,0.1c0-1.2,0.1-2.3-1-3.1c0,0,0,0.1,0,0.1c0.1-0.9-0.2-1.6-1-2.1c0,0,0,0.1,0,0.1
			c-0.4-0.3-0.7-0.7-1.1-1c0,0,0,0.1,0,0.1c-0.4-0.3-0.7-0.7-1.1-1c0,0,0.1,0,0.1,0C371.7,218.9,370.8,219,370,219z M423.9,219.1
			c3.3-10,4.6-19.5,4.8-29.2c-1.7,6-2.4,12.3-4.5,18.1C422.8,211.7,421.9,214.7,423.9,219.1z M429.2,188c0.9-2.1,0.9-3.1,0-4.6
			C429.2,185.1,429.2,186,429.2,188z"/>
		<path class="st3" d="M325.9,503.1c3.1,11.7,0.3,10.2-9.3,9.6c-3.3-0.2-9.1,2.3-9.1,5.3c0,2.6,2,5,3.9,7c0.8,0.9,1.6,1.2,0.2,2.1
			c-2.9,1.7-2.3,5.1-1.1,6.5c2.4,2.8-0.1,4.1-0.9,5.9c-0.6,1.4-1.8,2.2-2.7,0c-0.4-1-1.1-1.4-1.8-0.7c-1.2,1.2,0.4,1.9,0.9,2.2
			c3.2,1.8,6.6,3.2,10.4,3.5c-0.2,0.6-0.4,1.2-0.4,1.2c-6.2-1.4-6.2,2.5-6.1,6.8c0.1,2.8-0.4,6,1.1,8.3c2.9,4.3,0.5,6-2.9,7.2
			c-2.7,0.9-2.8,1.9-2.3,4.7c0.9,5.1,0.7,10.4,1,15.6c0.1,1.6-0.8,2.4-2.2,2.9c-2.5,0.8-4.2,2.5-4.7,5.2c-3.7-2.4-4.8-6.6-6.9-10.1
			c-1.4-2.2-1.9-4.8-2.8-7.3c5.6-2.1,0-3.8-0.2-5.7c-0.1-0.7-0.2-1.3-0.3-2c-0.1-0.3-0.3-0.6-0.4-1c-0.4-2.5-0.8-4.9-1.3-7.4
			c0.2-0.8,0.2-2.1,0.7-2.3c5.2-1.7,5-2.9-0.1-4.2c-0.3-0.1-0.4-0.8-0.6-1.3c0.3-3,0.7-6.1,1-9.1c2.4-2.1,6,0,8.4-2.1
			c1-0.9,3.1-1.6,2-3.2c-1-1.4-2.3,0.1-3.2,1c-1.8,1.6-3.6,2.8-6.2,2.5c-0.5-3.5,1.3-7.1-0.7-10.4c1.9-1.5,4.8-1.5,6.3-4.3
			c-1.3-0.1-2.4-0.2-3.5-0.3c2.7-7.7,4.6-15.7,12-20.6c2.4-1.6,4.1-4.2,6.1-6.4c1.5,1,3.2,1.1,5,1c1,0,2,0,3,0.1
			c1.3,1.3,2.7,1.3,4,0C323.3,503.1,324.6,503.1,325.9,503.1z"/>
		<path class="st4" d="M309.8,605.4c0.5-2.5,2.4-3.9,4.4-5c7.9-4.3,15.8-8.7,23.8-12.9c2.9-1.5,3.7-5.1,7.1-5.6
			c-4-5.1-1.5-10.7-2.2-15.9c1.3-0.4,2.7-0.9,4-1.3c-0.1-0.2-0.1-0.4-0.2-0.6c-1,0-1.9,0-2.9,0c0-5.3-0.1-10.5,0-15.8
			c0-2.3-0.8-3.3-3.2-3.3c-1.1,0-2.7,0.7-3.6-1.7c6.6,2.4,7.7-3.5,10.9-6.8c-2.1-1.2-4.6,0.3-6.9-1.3c1.7-1.5,4.8-2,3.8-5.2
			c2.6-0.7,5.2-1.5,7.9-2.2c1.1,0.1,2,0.5,2.2,1.8c1.4,3.5,2.8,7,4.2,10.5c0.2,0.9-0.4,2,0.5,2.8c1.5,10.1,1.2,20.2-0.8,30.2
			c-1.8,0-3.5,0-5.7,0c1.5,2.7,4.9,2.1,5.2,4.9c-0.9,5.7-2.4,11.4-5,16.4c-2,3.8-5.5,7.1-9.1,9.5c-5.4,3.8-11.9,5.5-18.3,7
			C319.6,612.4,314.7,608.8,309.8,605.4z"/>
		<path class="st5" d="M134.3,343c-2-5.3-0.6-10.1,1.7-15.2c2.7-6.1,3.5-13,5.3-19.4c3.7-13.5,9.3-26.4,15-39.2
			c3.3-7.5,9.1-13.5,15-19c3.5-3.3,5-8.8,10.4-10.1c0.1,0.6,0.3,1.2,0.4,1.8l-0.1,0.1c-2.8,6.8-5.9,13.5-6.9,20.9
			c-1.1-0.2-2-1.3-3.1-0.6c-0.2,0.1,0.1,1.1,0.1,1.7c0.9,3.9-3.6,6.2-3,10.1l0,0.1c-3.8-0.5-7.4,0.3-12.4,1.8c5.1,0,8.7,0,12.4,0
			c1,0.4,2,0.7,2.9,1.1c-1.1,4.9-2.4,9.7-5.1,14.1c-5,0-9.9,0-16,0c4.2,1.9,8-0.3,11.1,1.9c0.6,4.7-0.4,9.1-3,13.1
			c-2,2-5.4-0.2-7.2,2.5c1.8,1,3.5,0.1,5.2-0.5c0.3,4.1-1.4,7.8-2.9,11.4c-0.7,1.6-1.2,3.1-0.1,4.6c-1.3,1-2.7,1.9-4,2.9
			c0,0,0,0,0,0c-0.4,0.3-1.9-0.5-1,1.1c-1.1,6.1-4.6,11.6-5,18c-0.3,0.7-0.7,1.4-1,2c-1.3,1.2-2.8,2.1-3.6,4
			c-0.8,1.9,0.1,5.9-2.9,5.2c-2.8-0.6-1.2-4.3-1.5-6.6c-0.1-1.3,0.2-2.6,0.6-3.8C136.2,345.1,135.7,344,134.3,343z"/>
		<path class="st3" d="M334.8,499c-1.8,0.7-3.2,0.3-4.7-1.2c-1.3-1.3-1.8-3.6-4.1-3.8c0-1,0-2,0-3c0-2,0-3.9,0-5.9
			c1.8-1.8,0.8-4,1-6.1l0,0c1.7-1.4,0.9-3.3,1-5l0,0c1.5-1.4,1.4-2.7,0-4c0-0.7,0-1.3,0-2c0.1-0.1,0.2-0.3,0.2-0.4
			c-0.1,0.1-0.2,0.3-0.2,0.4c-5.1,0-10.2,0.1-15.3,0c-2.3-0.1-3.9,0.5-3.8,3.2c-1.3-9-2.6-18-3.9-27c-0.6-4.4-1.4-8.8-2.1-13.2
			c1.8-4.7,6.3-6.4,13.3-5.1c3.6,10.1,6.6,20.4,9.1,30.8c0.2,0.7,0.1,2.7,2,1.4c1.9,0.5,3.4-1.6,2.6-4.6c-0.9-3.3-0.9-6.5-0.8-9.8
			c0.2-7.2,0.6-14.4,0.9-21.6c0.1-1.5-0.7-2.5-2-3.1c0.8-8,2.6-15.9,4.2-23.8c0.5,0.2,1.3,0.4,1.3,0.4c-0.9,5.4,0.3,10.8-0.1,16.1
			c-0.3,3.8-0.4,7.2,1.7,10.4c-0.3,8.6-1.7,17.2-1.4,25.9c-0.3-0.1-0.8-0.3-0.9-0.2c-1.8,2.3-1.1,11.6,1,14.2
			C334.7,474.3,335.8,486.6,334.8,499z"/>
		<path class="st6" d="M314.1,406.3c2-1.3,1.8-3.4,2-5.3c1.1-14.6,3.4-28.9,5.9-43.3c1.6-9.5,2.6-19.2,5.2-28.5
			c3.5-12.2,7.5-24.2,11.6-36.2c0.6-1.6,2.1-3.1,2.4-5c2.9,0.9,1.6,3,1.5,4.8c-0.2,3.4-2.5,6.7-0.7,10.3c-2.1,9.4-4.5,18.8-6.2,28.2
			c-1.6,8.8-2.5,17.8-3.7,26.7c-1.7,6.9-1.6,14-2,21c-0.1,1.3-0.2,2.6-0.3,4c-0.5,0.4-1.4,0.7-1.4,1.2c-1.5,8.2-2.6,16.5-4.4,24.7
			c-0.9,4.2,0.2,9.2-4.1,12.3C317.2,416.4,315.4,411.5,314.1,406.3z"/>
		<path class="st7" d="M199.1,382c-12.7,11.7-25.3,23.4-39.1,33.7c1.5-8,5.1-15.2,7.6-22.9c0.5-1.7,1.1-3.2,3.3-2.8
			c0.4,0.9-0.5,2.3,1.1,2.9c0.2-4.8,0.2-9.4-0.8-13.9c3.7-1.5,3.4-5.3,4.8-8.1c0.9-1.8,0.3-4.5,3.2-5c2.5,7.9,6.2,15.5,6,25.2
			c1.4-3.2,1.7-5.3,1-7.6c-2.1-7.1-4.1-14.3-6.2-21.5c1.3-6.7,2.6-13.4,7-19c0.7,1.5,1.3,3,2.1,4.5c4,8,6.4,16.8,11,24.5l0,0
			c0,1.3,0,2.7,0,4C198.6,377.9,194.5,379.3,199.1,382z"/>
		<path class="st8" d="M380,260c-2.7-7.4-1.7-15.7-5-23c0-0.4,0-0.7,0-1.1c0.4-2-0.9-4.5,1.4-6.1c0.7,1.1,0.9,2.5,2.5,2.9
			c0.9,5.9,4.1,10.9,6.1,16.4c0,0.8,0.2,1.5,1,1.9c-1,5.7,3.2,9.8,4.6,14.9c1.5,5.6,3.7,11.1,4.4,17c0,0.4,0,0.8,0,1.2
			c0.2,2.6,0.5,5.2,0.7,7.8c-2.6,0.9-2.1,2.4-0.8,4.1c0,5.3,0,10.6,0.1,15.9c0.5,3.7-1.6,7.9,1.9,11.1c-0.1,4.1-1.5,8.4,2,11.9
			c-0.5,7.6,4.2,12.4,9.5,16.6c1.6,1.3,2.1,2.5,2.7,4.3c1.3,4.1-1.3,10,4.8,12.2c0.1,2,2.4,4.1-0.3,6c-5.1-7.2-10.2-14.5-15.3-21.7
			c-3.4-4.9-7-9.7-9.4-15.2c3.8,0,3.5-2.4,2.5-4.7c-0.7-1.5-1.3-2.9-1.5-4.6c-1.2-7.9-2.7-15.8-4-23.7c0.7-0.1,1.5-0.2,3-0.3
			c-1.8-0.8-2.8-1.3-3.9-1.8c-0.9-10.3-2.1-20.6-5.1-30.4c-0.9-2.8,0.7-6.6-2.8-8.5c0.6-1,2.2-1.5,2-3c0.3-0.3,1.4,0.4,1-0.7
			c-0.4,0.2-0.7,0.5-1.1,0.7C380.7,260,380.3,260,380,260z"/>
		<path class="st8" d="M335,176c-0.3,13.1,3.2,25.7,5.3,38.5c0.5,2.9,1.5,5.7-0.4,8.5c-7.7-16.2-11.2-33.8-15.5-51.1
			c1.9,18.1,6.8,35.3,13.5,52.1c-0.4,0.4-0.8,0.8-1.1,1.1c-3.3-4-5.1-8.9-7.3-13.5c-1.1-2.4-2.6-4.2-4.9-5.3
			c-4.4-2.2-7.6-4.6-7.6-10.6c0-3.4-3.2-6.6-2.7-11c1-8.5,4.3-15.7,9.1-22.6c1.5-2.1,11.2-1.6,12.8,0.4c0.5,0.7,0.5,1.5-0.1,1.6
			c-5,1-3.2,4.7-3.1,7.7C331.4,174.4,332.8,175.4,335,176L335,176z M323.9,168.5c-0.2-0.2-0.3-0.5-0.4-0.7c-0.1,0.2-0.4,0.5-0.4,0.7
			c0,0.2,0.2,0.5,0.4,0.7C323.6,169,323.8,168.8,323.9,168.5z"/>
		<path class="st2" d="M199.1,382c-4.5-2.7-0.5-4.2,0.9-6c1.5-1.3,1.5-2.7,0-4c0,0,0,0,0,0c0.5-3.6-2-6.5-2.1-9.9
			c2-1,2.2-3.1,3.2-4.7c2.5-3.9,1-9.7,6-12.4c2.7,1.8,3.2,5.2,5.7,7.2c0.2,0.4,0.1,1.4,0.8,1c0.6-0.3,0-1-0.4-1.4
			c-0.7-5.2-4.9-8.5-7.2-12.8c2,0,2.8-1.5,3.5-3c1.5-4,3-8,4.5-12c0.9,0.1,1.8,0.2,2.7,0.3c0.4,2.2,2.1,2.8,4,3c0.8,2.5,2.4,3.8,5,4
			c0.4,0.2,0.8,0.5,1.2,0.7l0,0.1c0,0.7,0,1.3,0,2c-0.6,1.5-1.2,3.1-1.7,4.6c-0.8,2.4,0.4,3.4,2.7,3.3c-6.3,6.9-9.6,15.6-14.4,23.5
			C209.9,371.7,205.3,377.7,199.1,382z"/>
		<path class="st9" d="M144,410.1c-2.4-5.5-4.8-11.1-5.9-17.1c3.2-0.6,4.2-2.5,3.6-5.8c-0.5-2.6-0.3-5.3,3.1-6.2
			c0.4-0.4,0.8-0.7,1.3-1.1c0,0,0,0,0,0c0.3-0.3,0.7-0.7,1-1l0,0c1-0.4,1.6-1,2-2c0.3-0.3,0.7-0.6,1-1c0.3-0.3,0.7-0.7,1-1
			c0.3-0.3,0.7-0.7,1-1c0.1-0.2,0.3-0.3,0.4-0.5c-0.2,0.2-0.3,0.3-0.5,0.5c-0.3,0.3-0.7,0.6-1,1c-0.3,0.3-0.7,0.7-1,1
			c-0.3,0.3-0.6,0.7-1,1c-0.6,0-1.3,0-1.9,0.1c-2.7-6.7,1.8-12.4,4.1-17.4c2.8-6.1,4.7-12.2,5.8-18.7c0-0.3,0-0.7,0-1l0,0
			c0.3-0.3,0.7-0.7,1-1l0,0c0.9,0,1.6-0.1,2-1l0,0c0.9,0,1.6-0.1,2-1c0,0,0,0,0,0c0.3-0.3,0.7-0.7,1-1c0,0,0,0,0,0
			c1.8,0.2,3.2-0.3,4.1-1.9c0.7-0.3,1.3-0.7,2-1c1-0.4,2-0.7,2.9-1.1c-0.4,4.5-3.4,8.4-3,13c-0.4,0.6-0.9,1.3-1.3,1.9
			c-0.2,0.3-0.5,0.7-0.7,1l-0.1,0c-0.8-0.1-1.6,0.1-1.9,1l-0.1,0c-0.3,0.3-0.6,0.6-1,1l0,0c-1,0-2.5,0.4-2.3,1.2
			c0.4,1.4,1.5-0.1,2.3-0.1c0.3,4.6-4.5,8-3,12.8c-0.7,0.5-1.1,1.2-1,2.1l0,0c-1.9,0.3-3.7,1.3-3.4,3.3c0.2,1.1,1.6-0.2,2.4-0.4
			c0.1,5.3-2.2,9.8-4,14.6c-1,2.7-3.1,5.3-2.1,8.5c-0.1,0.7-0.1,1.3-0.2,2c-2.6,5.1-8.2,8.8-7.5,15.6
			C145.3,409.7,144.4,409.9,144,410.1z"/>
		<path class="st9" d="M436.9,363c-0.1,6.5,1.2,12.9-2.4,19.3c-1.6,2.9-0.3,7.5-0.3,11.6c-3.5-0.6-5.6-2.5-7.5-4.7
			c2.3-4.4,0.1-8.8-0.2-13.2c-0.7-8.3-3.7-16.3-4.1-24.7c1.5,0.4,2.9,0.7,5.2,1.3c-2.1-3.5-5.4-4.3-7.5-6.5c0.8-1.5,0.8-2.9,0.4-4.6
			c-2.7-10.3-4.2-20.8-5.3-31.3c3,0.7,6,1.3,9,2c-0.3,3.7,0.7,7.2,1.4,10.7c2.1,9.6,3.4,19.4,4.6,29.2c-1.7,1.7-1,2.6,1,3
			c0.3,0,0.6,0,0.8,0C435.3,356.6,433.1,361.7,436.9,363z"/>
		<path class="st6" d="M332.2,395.1c-1.7,7.9-3.4,15.7-4.2,23.8c-0.3,0.1-0.5,0.1-0.8,0.2c-1.1-0.9-1.5-1.7-0.9-3.3
			c1.2-3.5,1.5-7.2,0.8-10.9c1-0.2,1-1.1,1-1.9c0,0,0,0,0,0c1.9-3.8,1.6-8,2.8-12c0.4-2.4,0.8-4.7,1.2-7.1c2.3-8.7,4.5-17.3,6.8-26
			c1-3.7,2-7.3,3-11c-0.6-3.8,1.8-7,3.4-9.6c6.8-11.6,9.2-25.1,16-36.6c1.5-2.6,2.1-6,5.7-6.9c0.7,0.4,1.5,0.8,2.2,1.2
			c1.1,2,0.5,4.1,0.3,6.1c-12.1,20.7-18.7,43.5-24.3,66.6c-0.2,0.8-0.5,1.5-0.8,2.3c-2.8-1.3-3.3-3.8-3.4-6.8
			C336.7,373.6,334.4,384.4,332.2,395.1z"/>
		<path class="st10" d="M316.2,425.9c-7-1.3-11.5,0.4-13.3,5.1c-3.9-16.9-9.3-33.3-14.5-49.8c-0.3-1.1-1-2.1-1.5-3.1
			c3.8-0.6,7.1,3.7,11,1c3,6.2,6.2,12.4,8.9,18.8C310.8,406.9,315.1,415.9,316.2,425.9z"/>
		<path class="st1" d="M228,342c-2.4,0.1-3.5-0.9-2.7-3.3c0.5-1.6,1.1-3.1,1.7-4.6c0.6-0.1,1.5,0.1,1.4-0.8
			c-0.1-0.5-0.9-0.8-1.3-1.2c0,0,0-0.1,0-0.1c0.1-0.4,0.1-0.7,0.2-1.1c2.2-0.2,3-2.2,3.5-3.7c1.4-3.7,2.3-7.5,3.4-11.2
			c1,0.1,1.5,1.8,2.9,1.1c0.3-2.6-2.2-3.3-2.9-5.1c3.1-7.5,7.7-14.4,8-22.9c0-0.4,0-0.8,0.1-1.1c5.1-5.2,6.1-12.2,7.9-18.8
			c1.1-0.2,2.5,0.1,3.1-1.3c0.3-5,0.7-10.1,5.9-12.9c0,14.3-4.8,27.4-9.5,40.5c-3.7,10.5-7.5,21-11.2,31.5
			c-1.9,5.3-6.4,8.7-9.5,13.1C228.5,340.7,228.2,341.3,228,342L228,342z"/>
		<path class="st6" d="M297.9,379.1c-3.9,2.6-7.2-1.6-11-1c0,0,0.1,0,0.1,0c-0.3-0.3-0.6-0.7-0.8-1c-7.1-17.9-16.8-34.3-29.1-49
			c-0.4-0.3-0.7-0.7-1.1-1c0,0,0,0,0,0c-0.3-0.3-0.7-0.7-1-1c0,0,0,0,0,0c-0.3-0.3-0.7-0.7-1-1c0,0,0,0,0,0c-0.3-0.3-0.7-0.7-1-1
			c0,0,0,0,0,0c-0.3-0.3-0.7-0.7-1-1c0,0,0,0,0,0c-0.3-0.3-0.7-0.7-1-1c0,0,0,0,0,0c-0.3-0.3-0.7-0.7-1-1c0,0,0,0,0,0
			c-0.4-0.3-0.8-0.7-1.1-1c-2.6-2-6.2-3.7-3.2-8.5c13.7,8.1,23.3,20.5,33.3,32.5c0,2,1.3,3.3,2.3,4.8
			C287.2,358.7,293.3,368.5,297.9,379.1z"/>
		<path class="st11" d="M157,341c-1.1,6.5-3,12.5-5.8,18.7c-2.3,5-6.8,10.7-4.1,17.4c0,0.7-0.1,1.3-0.1,2c0,0,0,0,0,0
			c-0.3,0.3-0.7,0.7-1,1c0,0,0,0,0,0c-0.4,0.4-0.8,0.7-1.3,1.1c-3.4,0.9-3.6,3.6-3.1,6.2c0.6,3.3-0.4,5.1-3.6,5.8
			c-3.4-5.6-4.1-11.7-4-18.1c0.2-10.6,0.2-21.2,0.2-31.8c1.4,0.9,1.9,2.1,1.4,3.8c-0.4,1.2-0.7,2.6-0.6,3.8c0.2,2.3-1.3,6,1.5,6.6
			c3,0.6,2.1-3.3,2.9-5.2c0.8-1.8,2.3-2.7,3.6-4c1.4-0.1,2.5-0.7,3-2.1l0,0c2.5,0,4.6-0.7,6-3c0,0,0,0,0,0c0.3-0.3,0.7-0.7,1-1
			c0,0,0,0,0,0c0.7,0,1.4-0.1,2-0.1C155.7,341.6,156.3,341.3,157,341z M139,388c0.1-0.1,0.1-0.3,0.2-0.4
			C139.1,387.7,139.1,387.8,139,388c-0.1,0.1-0.2,0.2-0.3,0.4C138.9,388.3,138.9,388.2,139,388z"/>
		<path class="st2" d="M258.9,255c-5.2,2.8-5.6,7.8-5.9,12.9c-4.1,0.2-8.3-0.3-12,2.1c0,0,0,0,0,0c-2.4-0.5-4.6,1.1-6.9,1.1
			c0-5.3,0.4-10.4,5-14.1c0.8-0.1,1.5-0.1,2.3-0.2c0-0.2,0-0.4,0-0.6c-0.8-0.1-1.5-0.1-2.3-0.2c-0.2-1.4,0.4-3-1-4c0-0.3,0-0.7,0-1
			c2.3-2.1,5.4-4.2,4.7-7.4c-0.6-2.7,0.8-4.3,1.3-6.4c5-3.6,11.3-1.7,13.8,3.9C259.8,245.7,260.2,250.2,258.9,255z M243.8,256.1
			c3.1-1.1,6.2-2.3,9.3-3.4C249.3,251.9,246.2,253,243.8,256.1z"/>
		<path class="st11" d="M458.1,203.8c9,3.4,12.1,10.8,13.8,19.5c1.6,7.8,1.2,15.2-1.6,22.6c-1.1,3,0.3,6.2,0.7,9.3
			c1.1,8.1-0.4,9.2-8.1,6.1c0.5-2.7-1.6-7.3,5.1-5.9c-3.3-1.2-3.5-3.4-4.1-5.9c-0.9-3.9-0.1-7.5,0.2-11.2c1.2-0.6,2.9,0.4,4.4-1.4
			c-3.1,0-5.8,0-8.4,0c0.4-4.2,1.5-8.4,1-12.7c0.4-0.4,2.8-0.1,0.7-1.4c-1.3-0.8-3.1-0.7-4.7-1C457.3,215.8,457.7,209.8,458.1,203.8
			z M467,224.9c-0.4,0.3-0.8,0.5-1.1,0.7c0.3,0.1,0.6,0.4,0.8,0.4c0.4,0,0.9-0.2,1.3-0.3C467.7,225.4,467.4,225.2,467,224.9z"/>
		<path class="st0" d="M308.9,471.1c-0.1-2.7,1.5-3.2,3.8-3.2c5.1,0.1,10.2,0,15.3,0l0,0c0,0.7,0,1.3,0,2c0,1.3,0,2.7,0,4
			c0,0,0,0,0,0c-1.8,1.4-0.8,3.3-1,5c0,0,0,0,0,0c-1.9,1.8-0.8,4.1-1,6.1c0,2,0,3.9,0,5.9c-3.7,1.1-1.8,4.2-1.9,6.3
			c-0.2,2.8-1,3.6-3.8,3.8c-3.4,0.2-5.6-0.7-6.8-4.1c-1-2.6-2.4-5.1-3.6-7.6C309,483.3,308.9,477.2,308.9,471.1z"/>
		<path class="st12" d="M297.9,379.1c-4.6-10.6-10.7-20.4-16.7-30.2c-0.9-1.5-2.3-2.9-2.3-4.8c6.8,2.7,9.6,9.1,13,14.7
			c8.4,13.8,15.2,28.4,21.4,43.3c0.6,1.5,0.5,2.9,0.7,4.4c1.3,5.1,3.1,10,5.7,14.7c-1,3.8,1.6,6.7,2.3,10.1c-0.8,2.5,0.6,4.6,1,6.9
			c1.4,6.7,2.7,13.4,4.1,20c-1.9,1.3-1.8-0.7-2-1.4c-2.5-10.4-5.4-20.7-9.1-30.8c-1.1-10-5.4-19-9.4-28
			C304.1,391.5,300.9,385.3,297.9,379.1z"/>
		<path class="st11" d="M175,262.9c1.1-7.4,4.1-14.1,6.9-20.9c0.3,0.3,0.7,0.7,1,1c0.1,0.1,0.3,0.3,0.4,0.4
			c-0.1-0.1-0.3-0.3-0.4-0.4c-0.3-0.3-0.7-0.7-1-1c-0.1-0.6-0.3-1.2-0.4-1.8c4.9-5,10.2-4.7,14.1,0.9c-0.6,0.3-1.3,0.4-1.8,0.8
			c-4.3,3.8-1.3,8.2-1,12.4c-2,0.1-1.8,1.3-1.5,2.8c0.7,4.1,1.2,8.1,1.8,12.2c-0.1,1.4-0.8,2-2.2,1.9l0,0c-0.3-0.3-0.7-0.7-1-1l0,0
			c-0.3-0.3-0.7-0.7-1-1l0,0c0.1-0.9-0.1-1.6-0.9-2.1c-0.2-1.3-0.9-2.3-2-3c-0.2-1.2-0.7-1.9-2-2c-0.3-0.3-0.6-0.7-1-1
			c0-0.9-0.3-1.7-1.2-2.2c-0.1,0-0.3-0.1-0.4-0.1c0.1,0.1,0.2,0.2,0.3,0.2c0.2,0.8,0.3,1.7,1.2,2.2c0.3,0.3,0.7,0.6,1,1
			c0.1,1.2,0.7,1.9,1.9,2.1c0.1,1.4,0.1,2.7,1.9,3.1c0.1,0.6,0.1,1.2,0.2,1.9c0,0.8-0.1,1.5-0.9,1.9c-0.4,0-0.7,0-1.1,0l0,0
			c-0.8-1.8-2.5-2.2-4-3l0,0c-0.2-2.5-1.7-3.2-4-3l0,0C177.4,263.7,176,263.6,175,262.9z M187.1,249.9c-0.3-0.3-0.7-0.7-1-1
			c-0.2-0.4-0.3-0.9-0.5-1.3c-0.1,0.1-0.4,0.3-0.4,0.3c0.2,0.4,0.5,0.8,0.7,1.1c0.3,0.3,0.6,0.7,1,1c0.3,0.3,0.7,0.7,1,1
			c0.1,0.7,0.2,1.4,1,1.4c0.2,0,0.6-0.4,0.6-0.6c-0.1-0.8-0.8-0.9-1.4-1C187.7,250.6,187.4,250.3,187.1,249.9z"/>
		<path class="st2" d="M152.8,394c0.1-0.7,0.1-1.3,0.2-2c3-2.7,3.9-7.3,8-9c0.4-0.3,0.7-0.7,1.1-1l0,0c0.3-0.3,0.7-0.7,1-1l0,0
			c1.6,1.1,0.8,2.3,0.3,3.5c-2.2,5.4-4.4,10.7-6.5,16.1c-1.8,4.7-3.3,9.5-4.9,14.3c0.4,0.1,0.9,0.3,1.3,0.4c5-12,10-23.9,15.1-35.9
			c0.4,0,0.8,0.1,1.2,0.1c0.5,3.5,0.9,7,1.4,10.5c-2.2-0.4-2.8,1.2-3.3,2.8c-2.5,7.6-6,14.9-7.6,22.9c0,0-0.1,0.3-0.1,0.3
			c-0.3,0.3-0.6,0.6-0.8,0.9c0,0-0.2,0.1-0.2,0.1c-0.9,0.1-1.7,0.3-1.8,1.4c-0.4,0.5-0.8,1.1-1.3,1.4c-2.2,1.6-4.3,5.2-6.7,4.1
			c-2.3-1.1-2.7-4.9-3-7.9c5.4-6,6.2-13.8,8.7-20.9C154.9,394.3,153.6,394.1,152.8,394z"/>
		<path class="st1" d="M369.3,301.1c0.2-2.1,0.8-4.1-0.3-6.1c1.9-0.1,2.8,1.5,4,2.5c4.3,3.6,8.8,7,14.9,6.6c1.4,7.9,2.8,15.8,4,23.7
			c0.3,1.7,0.9,3.1,1.5,4.6c1,2.3,1.3,4.7-2.5,4.7c-4.6-3.3-6.5-8.5-8.8-13.3c-3.3-6.6-6.2-13.3-9.4-20
			C372.1,302.4,371.5,300.5,369.3,301.1z"/>
		<path class="st13" d="M422.3,351.3c0.4,8.4,3.5,16.4,4.1,24.7c0.4,4.4,2.6,8.8,0.2,13.2c-6.5-3-9.4-8.6-11-15.2
			c2.7-1.9,0.4-4,0.3-6c1.7-1.7,1.1-3.7,0.7-5.6c-1.2-5.3-2-10.7-1.6-16.2C417.6,347.7,420.2,349.1,422.3,351.3z"/>
		<path class="st7" d="M244,237.2c-0.5,2.1-1.8,3.7-1.3,6.4c0.7,3.3-2.4,5.4-4.7,7.4c-0.7,0.1-1.3,0.1-2,0.2c0-0.4,0-0.8,0-1.2
			c0-0.6,0.1-1.3,0.1-1.9c0.3-0.3,0.7-0.7,1-1c0.1-0.2,0.3-0.4,0.4-0.6c-0.2,0.1-0.4,0.3-0.6,0.4c-0.3,0.3-0.7,0.7-1,1
			c-0.8,0.5-1.1,1.2-1,2.1c0,0,0,0,0,0c-0.3,0.3-0.7,0.7-1,1l0,0c-2.7,2.2-6,3.9-6,8l0,0c-2.2-0.1-2.9,1.8-4.1,3.1
			c-4.5,5.2-7.9,11.3-12.9,16.1c-0.5-2.8,1.2-5,2-7.5c0.7-2.1,3-4.4,0.1-6.7c5.5-7,11.3-13.7,18.4-19.4c2.4-1.9,4.3-4.4,7-6
			C240.2,237.6,241.8,236.4,244,237.2z"/>
		<path class="st5" d="M464,238.2c-0.3,3.7-1.1,7.3-0.2,11.2c0.6,2.6,0.8,4.7,4.1,5.9c-6.6-1.4-4.5,3.2-5.1,5.9
			c-4.8-1.6-9.9-2.7-13.9-6.2c1.4-2.1,1-4.6,1.1-6.9c3.7,0,7.4,0,11.1,0c-5.6-2.7-11.4-2.1-17.1-2.3c-0.1-1.7-0.1-3.4-0.2-5.1
			C450.4,238.9,457,237.2,464,238.2z"/>
		<path class="st2" d="M213.2,264c2.9,2.3,0.6,4.6-0.1,6.7c-0.8,2.5-2.5,4.7-2,7.5c-2.6,6.2-7.3,11-11.5,17.8
			c-1.4-6.7-2.5-11.9-3.6-17.1c0-0.3,0.1-0.7,0.1-1c2.6-0.3,2.3-2.8,3.2-4.3c2.1-3.5,1.7-8.4,5.9-10.7c1.2,2,1.6,4.2,1.9,6.9
			C209.3,267.6,210.8,265.3,213.2,264z"/>
		<path class="st5" d="M458.1,203.8c-0.4,6-0.7,12-1.1,18c-3.7,0.3-7.3,0.5-11,0.8c0-1.5,0-3,0-4.4c1.1-0.6,2.3-1.1,3.4-1.7
			c-0.7-1.7-2.2-1.4-3.4-1.7c-0.5-4.6,1-9.3-1.1-13.7c0-0.7,0-1.3,0-2l0,0c1.1-0.3,1.2-1.1,1-2l0,0c0.2-0.1,0.5-0.2,0.7-0.3
			c-0.2-0.3-0.5-0.6-0.7-0.8c-0.1-2.1-0.2-4.2,2.9-3.8C451.6,196.2,456.2,199,458.1,203.8z"/>
		<path class="st10" d="M332.2,395.1c2.2-10.8,4.6-21.5,8.6-32c0.1,3,0.6,5.5,3.4,6.8c0,0-0.1,0.2-0.1,0.2c-3.6,0.6-1.5,2.3-0.8,3.8
			c-2.7,16-5.4,32-8.1,48.1c-2.2-3.2-2-6.6-1.7-10.4c0.4-5.3-0.8-10.7,0.1-16.1C333.5,395.5,332.6,395.3,332.2,395.1z"/>
		<path class="st2" d="M435.2,306.1c3.4,6.6,4.7,13.6,4.7,20.9c0,1.7,0.2,3.3,1.1,4.7c4.5,6.7,3.2,13-1,19.3
			c-5.2-12.1-6.4-25-7.1-37.9c1-1.5-0.6-0.8-1-1.2c0.3-4.8-0.9-9.4-1.6-14.1c-0.2-1.9-1.4-4,1.5-4.8
			C432.6,297.5,433.6,301.9,435.2,306.1z"/>
		<path class="st7" d="M433,313.1c0.7,13,1.9,25.8,7.1,37.9c-1.1,4-2.1,8-3.2,12c-3.8-1.3-1.6-6.4-5-8c2.2,0,3.8-0.8,2.9-3.2
			c-1.7-4.4-1.7-9.1-2.4-13.6c-1.4-8.4-3.7-16.7-4.3-25.3C429.7,313,431.3,313,433,313.1z"/>
		<path class="st8" d="M435.2,306.1c-1.7-4.2-2.7-8.7-3.3-13.2c-0.3-0.6-0.7-1.3-1-1.9c0-1,0-2,0-3.1c-3.1-11.1-7.7-22-6-33.9
			c0.4-2.7,0.8-5.5,1.3-8.2c1.9,0.6,1.7,2.3,1.7,3.7c0.4,16.5,3.7,32.5,7.7,48.4C436.2,300.7,437,303.5,435.2,306.1z"/>
		<path class="st10" d="M341.9,303c-1.8-3.6,0.5-6.8,0.7-10.3c0.1-1.8,1.4-3.9-1.5-4.8c3.2-7.5,6-15.2,10.7-22
			c3.5,0.6,1.6,3.5,2.2,5.3c0.1,0.3,0.1,0.5-0.2,0.6c-0.3,0.5-0.6,1.1-0.9,1.6C349.3,283.4,345.6,293.2,341.9,303z"/>
		<path class="st7" d="M449,192c-3.1-0.4-3,1.7-2.9,3.8c0,0.4,0,0.8,0,1.2c0,0,0,0,0,0c-1,0.3-1.2,1.1-1,2c0,0,0,0,0,0
			c-3.3,0.6-3.5,3.9-5.1,5.9c-2.8-0.5-2.1-2.8-1.7-4.3c1.1-4.2,1.1-8.3-0.1-12.5c-0.7-2.5,1-4.8,1-7.2C445,182.3,446,188,449,192z"
			/>
		<path class="st9" d="M411,181.1c-3.6-2.7-7.3,0.3-10.9-0.2c0-4,0-7.9,0-11.9c5.1-0.3,9.9,0.8,14.5,2.8
			C409.3,173.4,411.6,177.8,411,181.1z"/>
		<path class="st13" d="M400,169c0,4,0,7.9,0,11.9c-2.7,0.3-5.4,0.7-8.1,1c0-0.8-0.2-1.5-1-1.9c-0.6-2.7,2.1-6.9-3.5-7.1
			C391,169.5,394.7,166.7,400,169z"/>
		<path class="st9" d="M192.9,254.1c-0.3-4.2-3.3-8.6,1-12.4c0.5-0.4,1.2-0.5,1.8-0.8c3.1,2.3,5.7,5,6.9,8.9
			c-1.5,0.6-2.9,1.3-4.6,1.2c-1.4,1.1-0.8,2.6-1,4l0,0c-1.4,1.8-1.8,3.9-2,6c0,0,0,0,0,0C191.9,259.4,193.4,256.5,192.9,254.1z
			 M198.4,248.7c0,0.1-0.1,0.2-0.1,0.3c0.2,0,0.3,0,0.5,0.1c0-0.1,0-0.3-0.1-0.4C198.6,248.7,198.5,248.7,198.4,248.7z"/>
		<path class="st1" d="M375,178.8c-1.1,2-1.5,4.2-0.2,6c2.2,2.9,2,5.9,1.2,9.1c-3.2,1.6-5.6,0.4-7.7-2.1c-1.8-2.1-1.8-4.8-0.3-6.4
			C370.2,183.1,369.8,177.8,375,178.8z"/>
		<path class="st7" d="M152.8,394c0.8,0.1,2.2,0.3,1.9,1.1c-2.4,7.2-3.3,15-8.7,20.9c-1.4-1.7-1.8-3.8-2-6c0.4-0.2,1.3-0.4,1.3-0.5
			C144.5,402.8,150.2,399.1,152.8,394z"/>
		<path class="st8" d="M464,238.2c-7-1-13.6,0.7-20.2,2.6c-4.3,0-8.6,0.8-12.8-0.6c-1.2-0.4-1.8,0.3-1.9,1.6
			c-0.4,0.4-0.8,0.8-1.3,1.3l-0.4,0c0,0-0.4,0.1-0.4,0.1c-1.4-1.5-3.1-2.8-3.2-5.1c0,0,0,0,0,0c0.4,0,0.7,0,1.1,0
			c0.3,0,0.7-0.1,1-0.1c4.4-1,8.4,2.6,12.9,1.1c4-0.7,8-1.5,12.1-2.2c3,0,6,0,8.9,0c2.6,0,5.3,0,8.4,0
			C466.9,238.6,465.2,237.7,464,238.2z"/>
		<path class="st13" d="M198,251c1.7,0.2,3.1-0.6,4.6-1.2c1.5,2.3,1.1,4.7,0.5,7.1c-2.4,0-1.9,2.4-2.9,3.5c-2.6,2.7-0.8,7.8-5.2,9.5
			c0-0.3-0.1-0.6-0.1-0.9c-0.4-2.7-0.6-5.4,0.1-8.1c0,0,0,0,0,0c2.8-1.3,1.9-3.9,2-6c0,0,0,0,0,0C198.5,254,197.8,252.4,198,251z"/>
		<path class="st7" d="M450,248.2c-0.1,2.3,0.3,4.8-1.1,6.9c-7-1.1-12.4-5.2-18.1-9c0.4-0.3,1-0.9,1.1-0.8
			C437.5,249.4,444,247.5,450,248.2z"/>
		<path class="st7" d="M195,270c4.4-1.7,2.6-6.8,5.2-9.5c1-1.1,0.5-3.5,2.9-3.5c0.7,2,1.4,4,2.2,5.9c-4.2,2.3-3.9,7.2-5.9,10.7
			c-0.9,1.6-0.6,4-3.2,4.4C195.7,275.3,195.4,272.6,195,270z"/>
		<path class="st10" d="M290,573.1c0.2,1.9,5.8,3.7,0.2,5.7c-4.1-1.6-4,1.6-3.9,3.8c0.1,2,0.9,4.1,1.8,6c0.9,2,0.5,3.3-1.2,4.3
			c0,0-0.4,0-0.4,0c-0.7-2.9-1.2-5.8-2.2-8.6c-1.5-4.1-1.3-7.2,3.6-8.3C289.6,575.7,289.5,574.3,290,573.1z"/>
		<path class="st4" d="M309.8,489.3c1.2,2.5,2.7,5,3.6,7.6c1.2,3.4,3.4,4.3,6.8,4.1c2.8-0.1,3.6-1,3.8-3.8c0.1-2.1-1.8-5.2,1.9-6.3
			c0,1,0,2,0,3c-2.3,6.5-0.9,8.3,6,7.3c-1.8,1.7-1.8,1.7-6.1,1.8c-1.3,0-2.6,0-3.9-0.1c-1.3-1.4-2.7-1.4-4,0c-1,0-2,0-3-0.1
			c-1.5-2.4-3-4.7-4.8-7.7c-0.1,2.5-0.2,4.3-0.3,6.1C308.5,497.4,308.1,493.4,309.8,489.3z"/>
		<path class="st7" d="M423.4,175.9c-3.3,0.4-1.8,3.2-2.5,5c-0.8,2.3,0.6,7.1-4.9,5.1c-0.8-4.5-0.9-8.8,1.1-13.1
			C419,174.4,422.1,173.3,423.4,175.9z"/>
		<path class="st14" d="M450,248.2c-6.1-0.6-12.6,1.2-18.1-2.9c-0.1-0.1-0.7,0.5-1.1,0.8c-1-1-2-2.1-3-3.1c0.4-0.4,0.8-0.8,1.3-1.3
			c2.3-0.1,3.8,1.7,5.7,2.6c2.9,1.5,5.8,3,9.2,1.5c5.7,0.1,11.6-0.4,17.1,2.3C457.5,248.2,453.8,248.2,450,248.2z"/>
		<path class="st13" d="M417.2,172.9c-2,4.2-2,8.6-1.1,13.1c-2.2-1.1-4.3-2.3-5-4.9c0.6-3.3-1.7-7.7,3.5-9.3
			C415.4,172.1,416.8,171.3,417.2,172.9z"/>
		<path class="st7" d="M387.5,172.8c5.6,0.2,2.9,4.5,3.5,7.1c-3.3,0.2-6.7,1.5-10-0.3c0-0.3-0.1-0.6-0.1-0.9
			C383.3,177.1,384.5,174,387.5,172.8z"/>
		<path class="st8" d="M359.8,542.9c-1-0.8-0.3-1.9-0.5-2.8c7.8-1.5,12.7,2.7,16.6,8.8c-0.6,0.1-1.2,0.1-1.7,0.2
			C370.6,544.1,365.5,542.7,359.8,542.9z"/>
		<path class="st8" d="M292,529c1.1,0.1,2.2,0.2,3.5,0.3c-1.5,2.8-4.4,2.8-6.3,4.3c-3.1,3.8-7.5,4.5-11.9,5.3
			c-0.1-0.7-0.2-1.3-0.2-2c5-2.1,10.7-3,14.6-7.3C291.6,529.3,291.7,529.1,292,529C292.1,529,292,529,292,529z"/>
		<path class="st10" d="M277,536.9c0.1,0.7,0.2,1.3,0.2,2c-0.2,0.1-0.3,0.2-0.5,0.2c-0.9-0.2-1.8-0.4-2.5,0.6
			c-3.4,2.1-6.6,5.2-11.4,2C266.8,537.9,272.2,538.2,277,536.9z"/>
		<path class="st10" d="M360.7,577.2c3.7,0.4,5.5,2.9,6.7,6c0.9,2.4,1.6,4.9,3.6,6.7l0,0c-4.8-3.2-8.3-7.4-10.5-12.7
			C360.5,577.3,360.7,577.2,360.7,577.2z"/>
		<path class="st3" d="M343.1,519.7c-0.6-2.4,2.6-3.5,2-5.9c2.7,1.9,4.4,4.7,6.1,7.5c-1.1,2.4-3.4,1.2-5.1,1.7c0,0-0.1-0.1-0.1-0.1
			c-0.3-0.3-0.6-0.6-0.9-0.9c0,0-0.1-0.1-0.1-0.1C345.2,520.5,344.2,520.1,343.1,519.7z"/>
		<path class="st3" d="M354.1,271.3c-0.6-1.8,1.3-4.7-2.2-5.3c0.7-3.4,4.6-5.8,3.1-9.9c1.8,3.5,3,7.2,4,11c-0.9-0.8-1.8-1.3-2.6,0.1
			C355.6,268.6,354.8,269.9,354.1,271.3z"/>
		<path class="st10" d="M287.9,555.1c0.2,0.4,0.3,1.2,0.6,1.3c5.1,1.2,5.4,2.5,0.1,4.2c-0.4,0.1-0.4,1.5-0.7,2.3
			c-1-5.3-3.1-3.8-5.4-0.9c-0.3-0.9-0.6-1.8-0.8-2.7C283,556.6,285.8,556.4,287.9,555.1z"/>
		<path class="st10" d="M355.1,529.5c-0.1-1.3-1.1-1.6-2.2-1.8c0-0.8,0-1.5,0-2.3l0,0c4.8,0.1,7.7,3.4,11.1,6.8
			C360,533.3,358.4,528.8,355.1,529.5z"/>
		<path class="st12" d="M275.9,568.2c-3.2,2.6-6.9,4.1-11.1,4.5c-1.7-1.3-3.7-0.4-5.5-0.8c5.6-0.8,10.5-3.3,15.4-5.9
			C274.3,567.2,274.3,568.2,275.9,568.2z"/>
		<path class="st8" d="M275.9,568.2c-1.6-0.1-1.6-1-1.2-2.2c2.4-2.3,4.7-4.6,7.1-6.9c0.3,0.9,0.6,1.8,0.8,2.7
			C281.2,564.9,278.7,566.7,275.9,568.2z"/>
		<path class="st10" d="M374.2,549c0.6-0.1,1.2-0.1,1.7-0.2c2.8,0.8,3.7,3.6,5.5,5.4c0.7,0.6,0.5,1.5,0.1,2.3
			c-1-0.9-3.1-0.4-3.1-0.6C378.1,552.9,374.2,552.1,374.2,549z"/>
		<path class="st4" d="M333.9,462c-2.1-2.6-2.8-11.9-1-14.2c0.1-0.1,0.6,0.1,0.9,0.2C333.8,452.6,333.8,457.3,333.9,462z"/>
		<path class="st8" d="M286.4,593c0,0,0.4,0,0.4,0c-0.2,3.8-0.8,7.5-5.2,10.3C281.4,598.4,285.3,596.3,286.4,593z"/>
		<path class="st10" d="M289.9,544.1c2.5,0.3,4.4-1,6.2-2.5c1-0.9,2.2-2.4,3.2-1c1.2,1.6-1,2.3-2,3.2c-2.4,2.2-5.9,0.1-8.4,2.1
			c-0.4-0.4-0.7-0.7-1.1-1.1C288.5,544.6,289.2,544.3,289.9,544.1z"/>
		<path class="st8" d="M259.3,571.9c1.8,0.3,3.8-0.5,5.5,0.8c-2.8,1.9-5.9,2.7-9.3,1.7C255.9,572.1,257.9,572.4,259.3,571.9z"/>
		<path class="st8" d="M360.7,577.2c0,0-0.2,0-0.2,0c-0.7,0.2-1.3,0.5-2,0.7c-0.4-2.8-3.7-2.3-5.2-4.9c2.2,0,3.9,0,5.7,0
			C360.3,574.2,361.5,575.3,360.7,577.2z"/>
		<path class="st0" d="M309.9,501.4c0.1-1.8,0.2-3.5,0.3-6.1c1.8,2.9,3.3,5.3,4.8,7.7c-1.7,0.1-3.4,0-5-1
			C309.8,501.9,309.7,501.7,309.9,501.4z"/>
		<path class="st4" d="M352.9,525.5C352.9,525.5,353,525.5,352.9,525.5c-1,0.3-1.9,0.6-2.9,0.9c-0.7-1.8-3.6-1.1-4-3.4
			c1.7-0.5,4,0.7,5.1-1.7C352.9,522.2,352,524.3,352.9,525.5z"/>
		<path class="st1" d="M335,176c-2.1-0.6-3.5-1.5-2-3.9C333.6,173.3,334.3,174.6,335,176z"/>
		<path class="st6" d="M343.3,374c-0.7-1.5-2.8-3.2,0.8-3.8C344,371.5,344.4,372.9,343.3,374z"/>
		<path class="st1" d="M368.1,215c1.1,0.1,2.3-1.1,3.6-0.3c-1,2-2.5,1-3.8,1.2C367.9,215.6,368,215.3,368.1,215z"/>
		<path class="st10" d="M370.9,590c0.4,0.9,1.1,1,1.9,0.8C372.2,590.5,371.6,590.3,370.9,590C371,590,370.9,590,370.9,590z"/>
		<path class="st8" d="M274.2,539.6c0.7-1,1.6-0.7,2.5-0.6C276.1,540.1,275.1,539.9,274.2,539.6z"/>
		<path class="st2" d="M228,341.9c0.2-0.6,0.5-1.2,0.7-1.8C228.8,340.8,228.7,341.5,228,341.9z"/>
		<path class="st7" d="M157.1,418.4c0.2-1,0.9-1.3,1.8-1.4C158.3,417.5,157.7,417.9,157.1,418.4z"/>
		<path class="st10" d="M286.2,377.1c0.3,0.3,0.6,0.7,0.8,1C286.7,377.8,286.4,377.4,286.2,377.1z"/>
		<path class="st7" d="M248.8,320c0.4,0.3,0.8,0.7,1.1,1C249.6,320.7,249.2,320.4,248.8,320z"/>
		<path class="st7" d="M439.1,181c-0.3-0.2-0.7-0.5-1-0.7C438.4,180.5,438.7,180.7,439.1,181z"/>
		<path class="st7" d="M424.7,177c-0.2-0.3-0.5-0.5-0.7-0.8C424.5,176.1,424.9,176.3,424.7,177z"/>
		<path class="st7" d="M250,321c0.3,0.3,0.7,0.7,1,1C250.6,321.7,250.3,321.4,250,321z"/>
		<path class="st7" d="M159,416.9c0.3-0.3,0.6-0.6,0.8-0.9C160,416.7,159.6,416.9,159,416.9z"/>
		<path class="st7" d="M251,322c0.3,0.3,0.7,0.7,1,1C251.6,322.7,251.3,322.4,251,322z"/>
		<path class="st7" d="M252,323c0.3,0.3,0.7,0.7,1,1C252.6,323.7,252.3,323.4,252,323z"/>
		<path class="st7" d="M253,324c0.3,0.3,0.7,0.7,1,1C253.6,324.7,253.3,324.4,253,324z"/>
		<path class="st7" d="M254,325c0.3,0.3,0.7,0.7,1,1C254.6,325.7,254.3,325.4,254,325z"/>
		<path class="st7" d="M255,326c0.3,0.3,0.7,0.7,1,1C255.6,326.7,255.3,326.4,255,326z"/>
		<path class="st7" d="M256,327c0.4,0.3,0.7,0.7,1.1,1C256.7,327.7,256.3,327.4,256,327z"/>
		<path class="st3" d="M292.1,529c-0.3,0.1-0.5,0.3-0.5,0.6C291.6,529.3,291.7,529.1,292.1,529z"/>
		<path class="st10" d="M289.3,570.1c0.1,0.3,0.3,0.6,0.4,1C289.6,570.8,289.4,570.5,289.3,570.1z"/>
		<path class="st3" d="M344,564.1c1,0,1.9,0,2.9,0c0.1,0.2,0.1,0.4,0.2,0.6c-1.3,0.4-2.7,0.9-4,1.3c-3,2-5.8,0.2-8.6-0.4
			c-4-0.9-7.8-2.3-12.1-0.8c-1.7,0.6-3.9,0.6-5.7-1.6c7-0.4,13.7-0.5,20.2,1.3C339.3,565.1,341.7,565.7,344,564.1z"/>
		<path class="st8" d="M322.3,556.4c-2.7,3-5.6,4.2-8.8,4.9C315.2,558.3,317.4,555.9,322.3,556.4z"/>
		<path class="st4" d="M343.1,519.7c1.1,0.3,2.1,0.7,1.9,2.2c-4.5-0.5-8.9,2.3-14.8-0.1C335.4,521,339.2,520.4,343.1,519.7z"/>
		<path class="st8" d="M350.1,526.4c1-0.3,1.9-0.6,2.9-0.9c0,0.8,0,1.5,0,2.3c-2.6,0.7-5.2,1.5-7.9,2.2
			C345,526.4,348.6,527.8,350.1,526.4z"/>
		<path class="st3" d="M319.4,579.8c-2.9,2.4-6.3,2.5-9.8,2.5C312.5,580.3,316,580.2,319.4,579.8z"/>
		<path class="st3" d="M315.5,537.1c0.3,0.2,0.5,0.3,0.8,0.4c-0.3,0.1-0.5,0.4-0.8,0.4c-0.3,0-0.5-0.3-0.8-0.4
			C315,537.4,315.2,537.2,315.5,537.1z"/>
		<path class="st4" d="M345.1,522c0.3,0.3,0.6,0.6,0.9,0.9C345.7,522.6,345.4,522.3,345.1,522z"/>
		<path class="st14" d="M338,224.1c-6.8-16.8-11.6-34.1-13.5-52.1c4.3,17.3,7.8,34.8,15.5,51.1c0,1.3,0.1,2.6,0.1,3.9L340,227
			C339.3,226,338.6,225.1,338,224.1z"/>
		<path class="st14" d="M366.8,293.8c0.2-1.5,0.3-2.9,0.5-4.4c1.4-0.4,2,0.5,2.7,1.5c4.1,6,9.9,9.4,17,11c1.1,0.5,2.2,1,3.9,1.8
			c-1.5,0.1-2.2,0.2-3,0.3c-6.1,0.4-10.6-2.9-14.9-6.6c-1.2-1-2.1-2.6-4-2.5C368.3,294.6,367.5,294.2,366.8,293.8z"/>
		<path class="st14" d="M375,235.9c0,0.4,0,0.7,0,1.1c-6.8,5.2-12.1,11.8-17.2,18.6C361.2,247,365.4,239.1,375,235.9z"/>
		<path class="st14" d="M381,260c0.2,1.5-1.4,2-2,3c-5.9,3.9-12.4,7.4-14.5,16.5c-1.2-6.1,1-9.4,4.4-12c3.6-2.7,7.4-5.1,11.1-7.6
			C380.3,260,380.7,260,381,260L381,260z"/>
		<path class="st14" d="M348.5,237c-1.5-9.5,0.9-18,6.8-25.4C352.5,219.9,348.9,228,348.5,237z"/>
		<path class="st4" d="M378.8,232.7c-1.6-0.3-1.7-1.8-2.5-2.9c-0.1-0.9-0.3-1.9-0.4-2.8c1.7,0.9,1.4,3.1,2.7,4.3c0,0,0.1,0,0.1,0
			C378.8,231.8,378.8,232.2,378.8,232.7z"/>
		<path class="st4" d="M375,224c1.2,0.7,1.1,1.9,1,3.1C374.8,226.3,374.9,225.1,375,224z"/>
		<path class="st4" d="M374,222c0.8,0.5,1.1,1.2,1,2.1C373.8,223.8,373.8,222.9,374,222z"/>
		<path class="st4" d="M370,219c0.9,0,1.8,0,2,1.1C371,220.3,370.2,220.1,370,219z"/>
		<path class="st14" d="M349.4,239.7c0.1,0,0.3,0,0.3,0c0.1,0.1,0.1,0.2,0.1,0.4c-0.2,0-0.3,0-0.5-0.1
			C349.3,240,349.3,239.8,349.4,239.7z"/>
		<path class="st4" d="M372,220c0.4,0.3,0.7,0.7,1.1,1C372.3,221.1,371.9,220.7,372,220z"/>
		<path class="st14" d="M340,227c0.1,0.2,0.3,0.3,0.4,0.5C340.3,227.3,340.1,227.2,340,227C340,227,340,227,340,227z"/>
		<path class="st4" d="M373,221c0.4,0.3,0.7,0.7,1.1,1C373.2,222.1,372.9,221.7,373,221z"/>
		<path class="st7" d="M424.9,254c-1.7,12,2.9,22.8,6,33.9c-1,0.2-1.9,0.5-1.7,1.8c0.1,1,1,1.1,1.7,1.3c0.3,0.6,0.7,1.3,1,1.9
			c-2.9,0.9-1.7,3-1.5,4.8c0.6,4.7,1.9,9.3,1.6,14.1c-1.7-0.6-3.3-1.1-5-1.7c-1.3-8.2-2.7-16.4-4-24.6c0.7-0.4,1.5-0.9,2.2-1.3
			c-0.7-0.1-1.5-0.3-2.2-0.4c-0.7-2.9-1.5-5.7-1.9-8.7c-2.8-16.7-5.4-33.4-8.2-50.1c-0.2-1.4-0.8-3-2.7-3.1c0.3-1,0.5-2.1,0.8-3.1
			l0,0c0.3-0.3,0.7-0.7,1-1l0,0c0.4,0,0.7,0,1.1,0c4.9,2.4,3.3,7.7,4.6,11.6c1.9,5.3,1.4,11.3,2.4,17
			C420.6,249.5,420.5,253.4,424.9,254z"/>
		<path class="st9" d="M393,185c1.5,1.7,3.3,2.7,5.4,1.6c1.9-1,2.5,0.5,3.5,1.4c2,11,4.1,22.1,6.1,33.1c-1.8,3.2-4.2,5.9-6.9,8.3
			c-0.9-4-1.6-8.1-2.3-12.1c-1.4-7.5-1.5-15.4-4.9-22.5c0.1-1,0.2-2,0.4-3C396.4,189.2,391.3,187.7,393,185z"/>
		<path class="st13" d="M408.1,221.2c-2-11-4.1-22.1-6.1-33.1c2,0.7,4,1.4,5.9,2c-2.8,6.2,1.2,11.8,1.7,17.7
			c0.2,2.7-0.4,6.1,2.4,8.2c0,0.3,0,0.6,0,0.9c0,0.4,0,0.7,0,1.1c0,0,0,0,0,0c-0.3,0.3-0.7,0.7-1,1c0,0,0,0,0,0
			C410,219.7,409,220.4,408.1,221.2z"/>
		<path class="st7" d="M386.1,210.1c-3.8-2.5-2.6-6.9-4-10.4c-0.5-1.2-0.3-2.6-0.7-3.8c-1.5-4.5-0.2-7.1,4.6-8.9
			c0,1.2-0.3,2.5,0.1,3.4c1.8,3.3-1,8.3,3.7,10.6C388.5,204,387.3,207,386.1,210.1z"/>
		<path class="st7" d="M412,216c-2.8-2.1-2.2-5.5-2.4-8.2c-0.5-5.9-4.4-11.5-1.7-17.7c2.6,0.1,3.9,1.8,4.2,4.1c0.7,6,1.3,12,1.9,18
			C414.1,213.7,414.5,215.7,412,216z"/>
		<path class="st13" d="M389.8,201c-4.7-2.3-1.9-7.2-3.7-10.6c-0.5-0.9-0.1-2.3-0.1-3.4c1.7-3,4.6-1.7,7.1-1.9
			c-1.7,2.7,3.4,4.1,1.3,6.9C391.6,194.4,390.7,197.6,389.8,201z"/>
		<path class="st14" d="M426.1,237.9c-0.3,0-0.7,0.1-1,0.1c-0.2-0.5-0.4-1.1-0.5-1.6c-0.2,0.5-0.4,1.1-0.5,1.6c0,0,0,0,0,0
			c-2.7-1.3-1.7-3.9-2-6c1.5-1.7,1.3-3.3,0-5c0.3-0.4,0.6-0.7,0.9-1.1c1,0,2,0,3.1,0l0,0c0.4,1-3.4,2.1,0,3.1c-0.3,0.5-0.7,1-1,1.5
			c-0.4,0.5-0.9,1,0,1.5c-0.8,1.7,0.1,1.9,1.5,1.9c5,0,9.7-1.4,14.5-3c3.9-0.4,7.8-1.5,11.8-0.9c0.4,1.1,2.2,0.3,2.4,2
			c-1.5,0-2.9,0-4.3,0c-4.5-0.4-8.7,1-12.9,2.1C433.9,234.9,429.6,235.3,426.1,237.9z"/>
		<path class="st14" d="M389.8,201c0.9-3.3,1.8-6.6,4.5-9c-0.1,1-0.2,2-0.4,3c-2.6,6.2-4.4,12.5-6,19c-1.3,3-2.7,6-4,9.1
			c-2.6,2.3-1.8,6.6-5.2,8.3c0,0-0.1,0-0.1,0c0-3.3,1.5-6,3-8.7c2.2-3.9,3.3-8.2,4.3-12.5C387.3,207,388.5,204,389.8,201z"/>
		<path class="st8" d="M426,226c-1,0-2,0-3.1,0c-0.1-0.5-0.2-1.3-0.1-1.4c7.9-2.3,11.1-8.9,14.7-15.3c0.3-0.5,0.9-0.9,1.3-1.4
			c0.2,0.2,0.4,0.4,0.7,0.6c-0.5,4.4-4.2,7.3-5.4,11.3c0,0.5-0.3,1.1,0.5,1.3c0.1,0,0.3-0.7,0.4-1.1c2,1,1.6,2,0,3
			c-0.7,0.5-1.3,1-2,1.5c-1.6,0.9-3.2,1.7-4.8,2.6c-1.1,0.2-1.8,0.9-2.2,1.9l0,0.1C422.6,228.1,426.4,227,426,226c1,0,2-0.2,2.4-1.3
			c0-0.1-0.2-0.4-0.3-0.4C426.9,224.2,426.5,225.1,426,226z"/>
		<path class="st8" d="M423.9,219.1c-1.9-4.5-1-7.5,0.3-11c2.2-5.8,2.8-12.1,4.5-18.1C428.4,199.6,427.2,209.1,423.9,219.1z"/>
		<path class="st8" d="M439.9,204.9c1.6-2,1.8-5.3,5.1-5.9c0,0.7,0,1.3,0,2c-1.8,2.5-3.7,4.9-5.5,7.4c-0.2-0.2-0.4-0.4-0.7-0.6
			C439.2,206.9,439.5,205.9,439.9,204.9z"/>
		<path class="st11" d="M381,179.7c3.3,1.8,6.6,0.5,10,0.3c0.8,0.4,1,1.1,1,1.9c-2.3,0.1-4.6,0.1-6.8,0.1
			C383.4,182,381.5,182.1,381,179.7z"/>
		<path class="st4" d="M422,227c1.3,1.7,1.5,3.3,0,5c-0.1-0.4-0.1-0.8-0.2-1.2c0-0.9,0-1.8,0-2.7C421.9,227.8,422,227.4,422,227z"/>
		<path class="st8" d="M429.2,188c0-2,0-3,0-4.6C430.1,185,430.1,185.9,429.2,188z"/>
		<path class="st1" d="M421.8,228.2c0,0.9,0,1.8,0,2.7C420.8,230,420.8,229.1,421.8,228.2z"/>
		<path class="st14" d="M412,218c0-0.4,0-0.7,0-1.1c0.4,0.4,0.7,0.7,1.1,1.1C412.7,218,412.3,218,412,218z"/>
		<path class="st0" d="M318,503c1.3-1.4,2.7-1.4,4,0C320.7,504.4,319.3,504.4,318,503z"/>
		<path class="st11" d="M144,346c0.4-6.3,3.9-11.8,5-18c0.3-0.4,0.7-0.7,1-1.1c0,0,0,0,0,0c5.6,0,9.8-4.1,15-5c0,2.6-1.1,4.8-2,7.1
			c-0.9,2-1.8,4,0.1,5.9c0,0.3-0.1,0.6-0.1,1c0,0,0,0,0,0c-0.3,0.3-0.7,0.7-1,1c0,0,0,0,0,0c-0.9,0-1.6,0.1-2,1c0,0,0,0,0,0
			c-0.9,0-1.6,0.2-2,1c0,0,0,0,0,0c-0.3,0.3-0.7,0.7-1,1c0,0,0,0,0,0c-0.8,0-1.6,0.1-2.1,0.9c-0.8,0.1-1.5,0.2-1.9,1.1c0,0,0,0,0,0
			c-0.3,0.3-0.7,0.7-1,1c0,0,0,0,0,0c-2.5,0-4.6,0.7-6,3c0,0,0,0,0,0C145.3,346,144.7,346,144,346z"/>
		<path class="st11" d="M159,306.1c2.6-4,3.6-8.4,3-13.1c4.1,0,8.2,0.2,12,2c-1.2,3.3-1.4,6.6,0,9.8C169,305.2,164,305.6,159,306.1z
			"/>
		<path class="st11" d="M154,324.1c-1-1.6-0.5-3,0.1-4.6c1.5-3.7,3.2-7.3,2.9-11.4c3.4,0,6.7,0,10-1c0.6,4.7-3.6,8.3-3,13
			C160.9,321.9,157.5,323.2,154,324.1z"/>
		<path class="st11" d="M166.9,291c2.7-4.3,4-9.2,5.1-14.1c3,0.7,5.6,2.1,8.1,3.9c-2.1,3.8-3.9,7.7-4.1,12.1
			C172.9,292.9,169.8,292.3,166.9,291z"/>
		<path class="st11" d="M169,274c-0.6-3.8,3.9-6.1,3-10.1c2,0.3,4,0.7,6,1c0,0,0,0,0,0c0.9,1.6,2,2.9,4,3c0,0,0,0,0,0
			c0,0.7,0,1.3,0,2c-1.3,2.5-2.5,5.1-3,8C175.8,276.5,172.6,274.7,169,274z"/>
		<path class="st2" d="M154,324.1c3.5-1,6.9-2.2,10-4c4.8-0.8,8.8-4.5,14-4c0,0.3,0,0.5,0,0.8c-4.5,1.3-8.8,3.1-13,5.1
			c-5.3,0.9-9.5,5-15,5C151.3,326.1,152.7,325.1,154,324.1z"/>
		<path class="st7" d="M167,307.1c-3.3,1-6.6,0.9-10,1c-1.7,0.6-3.3,1.5-5.2,0.5c1.8-2.7,5.2-0.4,7.2-2.5c5-0.4,10-0.8,15-1.2
			c1.7-0.3,3.3-0.5,5-0.8c0,0.4,0,0.7,0,1.1C175.2,306.6,171.1,306.9,167,307.1z"/>
		<path class="st7" d="M166.9,291c2.9,1.3,5.9,1.8,9.1,1.9c2,0.6,4,1.3,6,1.9c0,0.4,0,0.8,0,1.1c-2.7-0.3-5.3-0.7-8-1
			c-3.8-1.9-7.9-2-12-2c-3.1-2.2-6.8,0-11.1-1.9C157,291,162,291,166.9,291z"/>
		<path class="st2" d="M169,274c3.6,0.7,6.7,2.4,10,3.9c1.9,1.4,4.7,1.6,6,4.1c-1.8,0.4-3.3-0.9-4.9-1.1c-2.4-1.8-5.1-3.2-8.1-3.9
			c-1-0.4-2-0.7-2.9-1.1C169,275.3,169,274.7,169,274L169,274z"/>
		<path class="st7" d="M169,274.1c0,0.6,0,1.2,0,1.8c-3.6,0-7.3,0-12.4,0C161.6,274.4,165.3,273.7,169,274.1z"/>
		<path class="st2" d="M178,265c-2-0.3-4-0.7-6-1c-0.1-0.6-0.3-1.5-0.1-1.7c1.1-0.7,2.1,0.4,3.1,0.6C176,263.6,177.4,263.7,178,265z
			"/>
		<path class="st7" d="M144,346c0.7,0,1.3,0,2,0c-0.5,1.4-1.6,2-3,2.1C143.3,347.4,143.7,346.7,144,346z"/>
		<path class="st2" d="M150,327c-0.3,0.4-0.7,0.7-1,1.1C148.1,326.5,149.6,327.3,150,327z"/>
		<path class="st0" d="M327.2,458c-1.4-6.7-2.7-13.4-4.1-20c0.3,0,0.7-0.1,1-0.1c1.4-1.9,1.5-3.9,0-5.8c-0.4-0.4-0.7-0.8-1.1-1.2
			c2.2-3.7,3.9-7.5,4.1-11.9c0.3-0.1,0.5-0.1,0.8-0.2c1.3,0.6,2.1,1.6,2,3.1c-0.3,7.2-0.7,14.4-0.9,21.6c-0.1,3.3-0.1,6.5,0.8,9.8
			C330.6,456.4,329.1,458.6,327.2,458z"/>
		<path class="st4" d="M326,485.1c0.2-2-0.9-4.3,1-6.1C326.8,481.1,327.8,483.3,326,485.1z"/>
		<path class="st4" d="M327,479c0.2-1.7-0.8-3.6,1-5C327.9,475.7,328.7,477.6,327,479z"/>
		<path class="st4" d="M328,474c0-1.3,0-2.7,0-4C329.5,471.3,329.5,472.6,328,474z"/>
		<path class="st0" d="M328,468c0.1-0.1,0.2-0.3,0.2-0.4C328.2,467.7,328.1,467.9,328,468C328,468,328,468,328,468z"/>
		<path class="st10" d="M327.1,419.1c-0.1,4.4-1.8,8.2-4.1,11.9c-0.3,0-0.6,0-0.9,0.1c-0.8-3.4-3.3-6.3-2.3-10.1
			c4.3-3.1,3.2-8.1,4.1-12.3c1.8-8.2,2.9-16.5,4.4-24.7c0.1-0.5,0.9-0.8,1.4-1.2c0.1,2.7,0.1,5.4,0.2,8.1c-1.2,3.9-2,7.9-1.9,12
			c0,0,0,0,0,0c-0.8,0.4-1,1.1-1,1.9c0.7,3.7,0.3,7.4-0.8,10.9C325.6,417.5,326,418.2,327.1,419.1z"/>
		<path class="st0" d="M332,358c0,2.9,0,5.8,0,9.2c2.8-3.3,2.6-7.3,4.9-10.2c0.6,0.3,1.2,0.7,1.8,1c-2.3,8.7-4.5,17.3-6.8,26
			c-1.8-1.2-0.1-3.8-2-5C330.4,371.9,330.3,364.9,332,358z"/>
		<path class="st4" d="M330,379c1.9,1.2,0.2,3.8,2,5c-0.4,2.4-0.8,4.7-1.2,7.1c-0.3,0-0.6,0-0.9,0c-0.1-2.7-0.1-5.4-0.2-8.1
			C329.8,381.6,329.9,380.3,330,379z"/>
		<path class="st14" d="M196,279c1.1,5.2,2.2,10.4,3.6,17.1c4.2-6.9,8.9-11.6,11.5-17.8c5-4.8,8.4-10.9,12.9-16.1
			c1.2-1.3,1.8-3.2,4.1-3.1c-0.7,4.1-2.9,7-6.1,9.7c-3.3,2.9-6,6.5-7.1,11c-0.9,0.3-2,0.5-2,1.7c0,0.2,0.8,0.4,1.2,0.5
			c-0.6,1.5-2.1,2.1-3.1,3.1c-2.7,2.8-5.9,5.5-5.9,9.9c-0.8,0.3-0.6,0.7,0,1c-0.1,0.5-0.2,1-0.5,1.4c-3.5,3.9-3.3,5,1.8,6.2
			c1.4,0.3,3,0.6,4.4,0.2c3.7-1.1,7.5-0.8,11.3-0.7c1.4,1.9,4.6,2,5,4.9c-0.7,0-1.3,0-2,0c-3.3-3.2-6.8-4.6-11.6-3.3
			c-2.9,0.8-6.4,0.7-9.3-0.1c-3.9-1.1-4.4,0.5-4,3.6c0.2,1.6,0.7,3.2,1,4.8c-2,0.5-1.9-2.7-3.8-2.2c-2.8,6.2-2.2,11.6,1.6,17.7
			c2.2,3.4,5.4,6.3,6.1,10.5c-2.3,0.2-2.5-1.9-3.4-3.1c-2.3-3-4.4-6.2-6.5-9.2c-0.3-2.3,0.5-4.9-1.8-7.1c-1.9,4.7-3.4,9.3-5.6,13.5
			c-1.9,3.6-1.3,6.3,1.2,9c2.9,6.7,5.3,13.7,9,20c0.1,3.4,2.6,6.4,2.1,9.9c-4.5-7.8-7-16.5-11-24.5c-0.7-1.5-1.4-3-2.1-4.5
			c-0.5-1-0.6-2.5-2-2.5c-1.3,0-1,1.5-1.4,2.3c-0.6,1-0.9,2.1-1.4,3.2c-3,5.5-4,11.7-7,17.4c-2.4,4.6-6.3,9.5-4.1,15.6
			c1,4.6,1.1,9.2,0.8,13.9c-1.6-0.6-0.6-2-1.1-2.9c-0.5-3.5-0.9-7-1.4-10.5c-0.4,0-0.8-0.1-1.2-0.1c-5,12-10,23.9-15.1,35.9
			c-0.4-0.1-0.9-0.3-1.3-0.4c1.6-4.8,3.1-9.6,4.9-14.3c2-5.4,4.3-10.8,6.5-16.1c0.5-1.2,1.3-2.4-0.3-3.5c0-0.7,0.1-1.3,0.1-2
			c2.6-1.5,3.8-4,5-6.6c4-8.1,5.5-17.2,10-25.1c2.7-4.7,3.3-10.4,6.2-15.2c2.3-3.8,2.7-8.5,4.5-12.4c2.4-5.2,4.7-10.1,5.2-15.8
			c0.1-0.1,0.2-0.3,0.2-0.4c-0.1,0.1-0.2,0.3-0.2,0.4c-2.3-0.4-4.8,0.9-6.9-0.9c1,0,1.9-0.1,2.9-0.1c4.8-0.2,6.5-2.7,6.2-7.4
			c-0.2-2.7-0.8-5.2-2.1-7.5c0-0.3,0-0.7,0-1c1.9-2.5,0.5-5.3,0.8-7.9C195.2,279,195.6,279,196,279z"/>
		<path class="st2" d="M171.1,379c-2.3-6.1,1.6-11,4.1-15.6c2.9-5.6,4-11.9,7-17.4c0.6-1,0.9-2.1,1.4-3.2c0.5-0.8,0.2-2.3,1.4-2.3
			c1.4,0,1.5,1.5,2,2.5c-4.3,5.6-5.7,12.3-7,19c-1.5,1-0.8,2.6-0.9,3.9c-2.9,0.5-2.3,3.2-3.2,5C174.5,373.8,174.8,377.6,171.1,379z"
			/>
		<path class="st14" d="M179.1,365.9c0.1-1.4-0.6-2.9,0.9-3.9c2,7.2,4,14.3,6.2,21.5c0.7,2.3,0.4,4.4-1,7.6
			C185.3,381.4,181.7,373.8,179.1,365.9z"/>
		<path class="st14" d="M200,372c1.5,1.3,1.5,2.7,0,4C200,374.7,200,373.3,200,372z"/>
		<path class="st7" d="M395.1,282.9c-0.8-5.9-2.9-11.4-4.4-17c-1.4-5-5.5-9.2-4.6-14.9c2.6-2.4,5.2-4.7,7.8-7.1
			c3.6,7.6,3.8,15.9,5.2,24c-1.6,0.6-4.8-1.1-4.7,1.9c0.1,3.3,3,1.2,4.7,1.2c0.7,0,1.3,0,2,0c-0.3,4.1,3.1,7.7,2,12
			C400.4,283.2,397.7,281,395.1,282.9z"/>
		<path class="st2" d="M399,335c-3.5-3.5-2.1-7.8-2-11.9c-0.3-3.7,1-7.5-0.9-11.1c-0.8-5.3,1.4-10.8-1-16c-1.3-1.7-1.8-3.2,0.8-4.1
			c3.3,0.5,1.8,3.2,2.2,5c-2.5,4.6,3.2,3.6,4,6c-1.7,1.4-0.6,2.9-0.5,4.5c1,9.6,4.4,18.9,4.3,28.7c-1.7-1-3.4-1.9-5.1-2.9
			C397.9,331.5,399.5,334.3,399,335L399,335z"/>
		<path class="st7" d="M415,346.2c-0.4,5.5,0.4,10.9,1.6,16.2c0.4,1.9,1.1,3.9-0.7,5.6c-6.1-2.2-3.5-8-4.8-12.2
			c-0.6-1.8-1.1-3-2.7-4.3c-5.3-4.2-10-9-9.5-16.6c0,0,0,0,0,0C404.3,338.7,409.7,342.5,415,346.2z"/>
		<path class="st2" d="M378.8,231.3c3.4-1.7,2.6-6.1,5.2-8.3c2.5,0.2,2.5,2.5,2.8,4c0.7,3.2,0.9,6.4,1.2,9.6
			c0.2,2.3,0.1,4.7,3.1,5.4c-2.1,2.3-3.3,5.3-6,7.1c-2-5.5-5.2-10.5-6.1-16.4C378.8,232.2,378.8,231.8,378.8,231.3z"/>
		<path class="st7" d="M398,296.9c-0.4-1.8,1.1-4.5-2.2-5c-0.2-2.6-0.5-5.2-0.7-7.8c3.2,1.2,6.8,0.3,9.9,1.8
			c-0.3,5.8,2,11.2,2.1,16.9C404,300.9,401,298.9,398,296.9z"/>
		<path class="st14" d="M385,249.1c2.7-1.8,4-4.7,6-7.1c1.6-0.9,2.2-2.4,3-3.9c3-2.4,5.2-5.4,7.1-8.7c2.7-2.4,5.1-5.1,6.9-8.3
			c1-0.7,1.9-1.4,2.9-2.2c-0.3,1-0.5,2.1-0.8,3.1c-0.4,0.8-0.8,1.7-1.3,2.5c-3.2,3-5.8,6.5-8.1,10.2c-2.9,2.6-5.1,5.7-7,9.1
			c-2.6,2.4-5.2,4.7-7.8,7.1C385.2,250.6,385,249.9,385,249.1z"/>
		<path class="st14" d="M405,285.9c-3.1-1.5-6.7-0.6-9.9-1.8c0-0.4,0-0.8,0-1.2c2.7-1.9,5.3,0.3,7.9,0.1c2,0.4,3.9,1.3,6,0.9
			c3,0.1,6,0.2,9,0.2c1.7-0.1,3.3-0.1,5-0.2c0.7,0.1,1.5,0.3,2.2,0.4c-0.7,0.4-1.5,0.9-2.2,1.3c-1.3,0.1-2.6,0.3-3.9,0.4
			c-2.7,0-5.3,0.1-8,0.1C409,286.1,407,286,405,285.9z"/>
		<path class="st11" d="M396.1,312c1.9,3.6,0.6,7.4,0.9,11.1c-3.5-3.2-1.4-7.4-1.9-11.1c0,0,0.5,0.1,0.5,0.1L396.1,312z"/>
		<path class="st4" d="M396.1,312l-0.5,0c0,0-0.5-0.1-0.5-0.1c0-5.3,0-10.6-0.1-15.9C397.4,301.2,395.3,306.7,396.1,312z"/>
		<path class="st14" d="M381,260c0.4-0.2,0.7-0.5,1.1-0.7C382.4,260.4,381.3,259.7,381,260C381,260,381,260,381,260z"/>
		<path class="st14" d="M323.9,168.5c-0.1,0.3-0.3,0.5-0.4,0.7c-0.1-0.2-0.4-0.5-0.4-0.7c0-0.2,0.2-0.5,0.4-0.7
			C323.6,168,323.8,168.3,323.9,168.5z"/>
		<path class="st7" d="M195.1,326.7c2.2,3.1,4.2,6.3,6.5,9.2c0.9,1.2,1.1,3.3,3.4,3.1l0,0c-0.8,2.5,2,3.8,2.1,6
			c-5,2.7-3.5,8.5-6,12.4c-1,1.6-1.2,3.7-3.2,4.7c-3.7-6.4-6.1-13.3-9-20C191.8,337.3,193.5,332,195.1,326.7z"/>
		<path class="st7" d="M205,339c-0.7-4.3-4-7.1-6.1-10.5c-3.8-6.1-4.4-11.5-1.6-17.7c1.9-0.5,1.8,2.7,3.8,2.2c0,0,0,0,0,0
			c2.3,5.3,7,7.3,12,9l0,0c0.3,0.7,0.7,1.3,1,2c-1.5,4-3,8-4.5,12c-0.6,1.6-1.4,3-3.5,3C205.7,339,205.3,339,205,339L205,339z"/>
		<path class="st14" d="M205,339c0.3,0,0.7,0,1,0c2.3,4.4,6.4,7.6,7.2,12.8c-0.1,0.1-0.3,0.2-0.4,0.3c-2.5-1.9-3-5.4-5.7-7.2
			C206.9,342.8,204.2,341.5,205,339z"/>
		<path class="st14" d="M225.8,331.3c-2.6-0.1-4.2-1.5-5-4c0.1-0.2,0.3-0.3,0.4-0.5c2.3,0.6,3.6,2.3,5,4
			C226.1,330.9,225.9,331.1,225.8,331.3z"/>
		<path class="st14" d="M220.8,327.3c-1.9-0.2-3.6-0.8-4-3c0.1-0.2,0.3-0.3,0.4-0.5c1.8,0.3,2.9,1.6,4,2.9
			C221,326.9,220.9,327.1,220.8,327.3z"/>
		<path class="st14" d="M214,324c-0.3-0.7-0.7-1.3-1-2c1.5-0.5,2.7,0.4,4.1,0.9c0,0.3,0,0.6,0.1,0.9c-0.1,0.1-0.3,0.3-0.4,0.5
			C215.8,324.2,214.9,324.1,214,324z"/>
		<path class="st14" d="M227,332c0.5,0.4,1.3,0.7,1.3,1.2c0.1,0.9-0.8,0.7-1.4,0.8C227,333.4,227,332.7,227,332z"/>
		<path class="st14" d="M213.2,351.8c0.4,0.4,1,1.1,0.4,1.4c-0.8,0.4-0.6-0.6-0.8-1C212.9,352.1,213.1,351.9,213.2,351.8z"/>
		<path class="st14" d="M227.1,330.9c-0.1,0.4-0.1,0.7-0.2,1.1c-0.4-0.2-0.8-0.5-1.2-0.7c0.1-0.2,0.3-0.3,0.4-0.5
			C226.5,330.8,226.8,330.9,227.1,330.9z"/>
		<path class="st7" d="M163.1,379c0,0.7-0.1,1.3-0.1,2c0,0,0,0,0,0c-0.3,0.3-0.7,0.7-1,1c0,0,0,0,0,0c-0.4,0.3-0.7,0.7-1.1,1
			c-4.1,1.7-4.9,6.3-8,9c-1-3.3,1.1-5.8,2.1-8.5c1.7-4.8,4.1-9.3,4-14.6c0.3-1,0.6-1.9,0.9-2.9c0,0,0,0,0,0c1.4,0,2-0.7,2.1-2
			c0.3-0.3,0.6-0.6,0.9-0.9c2,0.3,2.8-2.1,5.3-2.3c-1.5,4.4-3,8.5-4.4,12.6C163.3,375.1,161.3,376.8,163.1,379z"/>
		<path class="st7" d="M169,345c-0.4-4.7,2.6-8.6,3-13c0-0.3-0.1-0.7-0.1-1c0,0,0,0,0,0c0.8-0.2,1.6-0.4,2.4-0.6
			c1-0.3,2-1.6,3.1-0.6c1.1,1,0,2.1-0.3,3.2c-0.9,4.6-3,8.7-6.2,12.1l0,0C170.3,345,169.7,345,169,345z"/>
		<path class="st13" d="M163,363c-0.3,0.3-0.6,0.6-0.9,0.9c-0.4,0-0.7-0.1-1.1-0.1c-1.4-4.9,3.3-8.2,3-12.8c0-0.4,0-0.7,0-1.1
			c0,0,0,0,0,0c0.3-0.3,0.6-0.6,1-1c0,0,0.1,0,0.1,0c0.8,0.1,1.6-0.1,1.9-1c0,0,0.1,0,0.1,0c3.2,0.9,2.1,3.4,1.6,5.3
			c-0.5,2-1.8,3.8-2.7,5.7C164.4,359.9,163.1,361,163,363z"/>
		<path class="st7" d="M166,359c0.9-1.9,2.2-3.7,2.7-5.7c0.4-1.8,1.6-4.4-1.6-5.3c0.2-0.3,0.5-0.7,0.7-1c1.6,0.1,2.7-0.5,3.2-1.9
			c0,0,0,0,0,0c4.5,2.2,1,5.5,0.8,8C171.5,355.9,169.7,358.7,166,359z"/>
		<path class="st2" d="M160,366c-0.3,1-0.6,1.9-0.9,2.9c-0.9,0.2-2.3,1.5-2.4,0.4C156.2,367.2,158,366.3,160,366z"/>
		<path class="st2" d="M163,336c0-0.3,0-0.6,0.1-1c1.2-0.8,2.4-1.2,3.9-1.2l0.2,0.2C166.2,335.7,164.7,336.2,163,336z"/>
		<path class="st2" d="M171.9,330.9c0,0.3,0.1,0.7,0.1,1c-1,0.4-2,0.7-2.9,1.1l-0.1-0.2C169.1,331.1,170.5,330.9,171.9,330.9z"/>
		<path class="st7" d="M164,350c0,0.4,0,0.7,0,1.1c-0.8,0-1.9,1.5-2.3,0.1C161.4,350.4,162.9,350,164,350z"/>
		<path class="st2" d="M171,345c-0.6,1.5-1.7,2.1-3.2,1.9c0.4-0.6,0.9-1.3,1.3-1.9C169.7,345,170.3,345,171,345z"/>
		<path class="st2" d="M161,363.9c0.4,0,0.7,0.1,1.1,0.1c-0.1,1.3-0.7,2-2.1,2C159.9,365.1,160.3,364.4,161,363.9z"/>
		<path class="st2" d="M154.9,340.9c0.5-0.8,1.2-1,2.1-0.9c0,0.3,0,0.7,0,1c-0.6,0.3-1.3,0.6-1.9,0.9
			C155,341.6,155,341.3,154.9,340.9z"/>
		<path class="st2" d="M147,379c0-0.7,0.1-1.3,0.1-2c0.6,0,1.3,0,1.9-0.1c0,0,0,0,0,0C148.6,378,147.9,378.6,147,379z"/>
		<path class="st2" d="M158,339c0.4-0.8,1.2-1,2-1C159.6,338.9,158.8,339,158,339z"/>
		<path class="st2" d="M160,338c0.4-0.9,1.2-1.1,2-1C161.6,337.9,160.8,338,160,338z"/>
		<path class="st2" d="M169.1,333.1c-0.7,0.3-1.3,0.7-2,1c0,0-0.2-0.2-0.2-0.2c0.4-0.8,1.2-1,2-1L169.1,333.1z"/>
		<path class="st7" d="M167,348c-0.4,0.9-1.1,1-1.9,1C165.4,348.1,166.1,347.9,167,348z"/>
		<path class="st2" d="M150,376c-0.3,0.3-0.7,0.6-1,1c0,0,0,0,0,0c0.3-0.3,0.6-0.7,1-1C149.9,375.9,150,376,150,376z"/>
		<path class="st2" d="M146,380c0.3-0.3,0.7-0.7,1-1C146.7,379.3,146.3,379.7,146,380z"/>
		<path class="st2" d="M144.8,381c0.4-0.4,0.8-0.7,1.3-1.1C145.6,380.3,145.2,380.7,144.8,381z"/>
		<path class="st2" d="M149.9,375.9c0.3-0.3,0.7-0.7,1-1c0,0,0.1,0.1,0.1,0.1c-0.3,0.3-0.7,0.7-1,1C150,376,149.9,375.9,149.9,375.9
			z"/>
		<path class="st2" d="M162,337c0.3-0.3,0.7-0.7,1-1C162.7,336.3,162.3,336.7,162,337z"/>
		<path class="st2" d="M157,340c0.3-0.3,0.7-0.7,1-1C157.7,339.3,157.3,339.7,157,340z"/>
		<path class="st2" d="M152,374c0.2-0.2,0.3-0.3,0.5-0.5C152.3,373.7,152.2,373.9,152,374C152,374,152,374,152,374z"/>
		<path class="st2" d="M150.9,374.9c0.3-0.3,0.7-0.6,1-1c0,0,0.1,0.1,0.1,0.1c-0.3,0.3-0.7,0.7-1,1
			C151.1,375,150.9,374.9,150.9,374.9z"/>
		<path class="st7" d="M165,349c-0.3,0.3-0.6,0.6-1,1C164.3,349.6,164.6,349.3,165,349z"/>
		<path class="st13" d="M415,310.1c1.1,10.6,2.6,21.1,5.3,31.3c0.5,1.8,0.5,3.2-0.4,4.6c-2.5-1.4-5.1-2.8-7.1-4.9
			c0.1-1.5-0.2-2.9-0.4-4.4c-1.5-10-4.6-19.8-4.5-30.1C410.4,307.9,412.7,309,415,310.1z"/>
		<path class="st13" d="M428,313c0.6,8.6,2.8,16.9,4.3,25.3c0.8,4.5,0.8,9.2,2.4,13.6c0.9,2.4-0.7,3.2-2.9,3.2c-0.3,0-0.6,0-0.8,0
			c-0.3-1-0.7-2-1-3c-1.2-9.8-2.5-19.5-4.6-29.2c-0.8-3.6-1.7-7-1.4-10.7C425.4,311.9,426.7,312.3,428,313z"/>
		<path class="st14" d="M428,313c-1.3-0.7-2.6-1.1-4-0.8c-3-0.7-6-1.3-9-2c-2.3-1.1-4.7-2.3-7-3.4c-1.6-1.8-3.6-3.1-6-3.8
			c-0.8-2.4-6.5-1.4-4-6c3,2,6,3.9,9,5.9c2.3,1.2,4.1,3.3,6.8,3.4c2.9,1.3,5.9,2.6,9.1,2.7c1.3,0.4,2.6,0.8,4,1.2
			c1.7,0.6,3.3,1.1,5,1.7c0.4,0.4,2-0.3,1,1.2C431.3,313,429.7,313,428,313z"/>
		<path class="st14" d="M412.9,341.2c2,2.2,4.6,3.5,7.1,4.9c2.1,2.2,5.4,3,7.5,6.5c-2.3-0.6-3.7-0.9-5.2-1.3c-2-2.3-4.7-3.6-7.2-5.1
			c-5.3-3.7-10.7-7.4-16-11.2c0.5-0.7-1.1-3.5,1.8-1.8c1.7,1,3.4,2,5.1,2.9C408,338.1,410.1,340.1,412.9,341.2z"/>
		<path class="st7" d="M430,352c0.3,1,0.7,2,1,3C429,354.6,428.3,353.7,430,352z"/>
		<path class="st4" d="M338.8,358c-0.6-0.3-1.2-0.7-1.8-1c1.3-3.5,1.1-7.7,4.9-10C340.8,350.6,339.8,354.3,338.8,358z"/>
		<path class="st0" d="M329.9,391c0.3,0,0.6,0,0.9,0c-1.2,3.9-0.9,8.2-2.8,12C327.9,398.9,328.7,394.9,329.9,391z"/>
		<path class="st0" d="M327,404.9c0-0.8,0.2-1.5,1-1.9C328.1,403.8,328.1,404.6,327,404.9z"/>
		<path class="st2" d="M227,308c-0.4-2.9-3.6-3-5-4.9c2.2-4.9,5.5-9.4,5-15.1c2.8-2,6-0.4,9-1l0,0c1,1.5,2.6,1,4,1l0,0
			c0.4,0.9,1.2,1,2,1.1c-0.2,8.5-4.8,15.4-8,22.9c-1.4-0.5-2.2-2.2-4-2l0,0c-0.3-1-1.1-1.1-2-1l0,0C227.7,308.7,227.3,308.3,227,308
			L227,308z"/>
		<path class="st2" d="M249.9,269.1c-1.8,6.6-2.7,13.6-7.9,18.8c-0.7,0-1.4,0-2.1,0c0,0,0,0,0,0c-1-1.6-2.6-1-4-1c0,0,0,0,0,0
			c-2.4-2.2-5.4-0.5-8.1-1.2c-0.6-3.8,2-7,2-10.8c0.8-0.5,1.7-1,2-2.1l0,0c3.4,0.1,6.5-0.6,9-3c0,0,0,0,0,0
			C244.1,270.6,246.9,269.2,249.9,269.1z"/>
		<path class="st2" d="M227.1,330.9c-0.3,0-0.6-0.1-0.9-0.2c-1.4-1.6-2.8-3.4-5-4c-1.1-1.3-2.2-2.6-4-2.9c-0.1-0.3-0.1-0.6-0.1-0.9
			c1.4-0.6,1.5-2,2.2-3.1c2.4-3.7,2.4-8.6,5.8-11.8c0.7,0,1.3,0,2,0c0,0,0,0,0,0c0.3,0.3,0.6,0.6,1,1c0,0,0,0,0,0
			c0.4,0.9,1.1,1.1,2,1c0,0,0,0,0,0c-0.1,2.9,3.1,3.7,4,6c-1.1,3.8-2,7.6-3.4,11.2C230.1,328.8,229.3,330.7,227.1,330.9z"/>
		<path class="st14" d="M234,316c-0.8-2.3-4.1-3.1-4-6c1.8-0.3,2.6,1.4,4,2c0.6,1.8,3.2,2.6,2.9,5.1C235.5,317.8,235,316.1,234,316z
			"/>
		<path class="st14" d="M249.9,269.1c-3,0-5.9,1.5-8.9,0.9c3.7-2.5,7.9-2,12-2.1C252.4,269.3,251,268.9,249.9,269.1z"/>
		<path class="st14" d="M240,288c0.7,0,1.4,0,2.1,0c0,0.4,0,0.8-0.1,1.1C241.2,289,240.3,288.9,240,288z"/>
		<path class="st7" d="M146,346c1.4-2.3,3.5-3,6-3C150.6,345.3,148.5,346,146,346z"/>
		<path class="st7" d="M154.9,340.9c0,0.3,0.1,0.7,0.1,1c-0.7,0-1.4,0.1-2,0.1C153.4,341.2,154.1,341,154.9,340.9z"/>
		<path class="st9" d="M139,388c0.1-0.1,0.2-0.3,0.3-0.4C139.2,387.7,139.1,387.9,139,388C139,388,139,388,139,388z"/>
		<path class="st9" d="M139,388c-0.1,0.1-0.2,0.3-0.3,0.4C138.8,388.3,138.9,388.1,139,388C139,388,139,388,139,388z"/>
		<path class="st7" d="M152,343c0.3-0.3,0.7-0.7,1-1C152.7,342.3,152.3,342.7,152,343z"/>
		<path class="st7" d="M214.8,279.8c1.1-4.5,3.9-8.1,7.1-11c3.1-2.8,5.4-5.6,6.1-9.7c0,0,0,0,0,0c2.5-1.8,5.5-3,7-6c1-0.3,2-0.7,3-1
			c1.5,1.1,0.9,2.7,1,4c0,0.3,0,0.6,0,0.9c-4.5,3.7-5,8.8-5,14.1c-0.7,0.6-1.4,1.3-2.1,1.9c0,0,0,0,0,0c-2-0.1-3.7,0.5-5,2l0,0
			c-0.3,0.3-0.7,0.7-1,1l0,0c-1.2-0.1-2.3-0.2-3,1l0,0c-0.9,0-1.7,0.1-2,1l0,0c-0.9,0-1.6,0.2-2,1l0,0c-0.9,0-1.6,0.2-2,1
			c0,0,0,0,0,0c-0.6,0-1.3,0.1-1.9,0.2L214.8,279.8z"/>
		<path class="st14" d="M243.8,256.1c2.4-3.1,5.5-4.2,9.3-3.4C250,253.8,246.9,255,243.8,256.1z"/>
		<path class="st14" d="M232,273c0.7-0.6,1.4-1.3,2.1-1.9c2.4,0,4.5-1.6,6.9-1.1C238.4,272.3,235.3,273,232,273z"/>
		<path class="st14" d="M238,252c-1,0.3-2,0.7-3,1l0,0c0.3-0.6,0.7-1.2,1-1.8c0.7-0.1,1.3-0.1,2-0.2C238,251.3,238,251.7,238,252z"
			/>
		<path class="st14" d="M239,257c0-0.3,0-0.6,0-0.9c0.8,0.1,1.5,0.1,2.3,0.2c0,0.2,0,0.4,0,0.6C240.6,256.9,239.8,256.9,239,257z"/>
		<path class="st5" d="M451,232.1c1.4,0,2.8,0,4.3,0c-0.2-1.7-2-0.9-2.4-2c0.5-2.1-0.6-4-0.8-6c3,0,6,0,9,0.1
			c0.5,4.3-0.5,8.4-1,12.7c-3,0-6,0-8.9,0C451,235.2,451,233.7,451,232.1z"/>
		<path class="st12" d="M461,224.2c-3,0-6,0-9-0.1c-3.8-0.1-7.4,1.3-11,1.9c-4.2,0.4-7.5,3.1-11.5,4.2c-1.1,0.3-2.7,1.5-2.5-1.2
			c0.8,0.1,1.5-0.2,2-0.9c1.3-1.3,4.6-0.3,4-3.6c0.7-0.5,1.3-1,2-1.5c-0.4,2.7,1.3,2.1,2.8,1.7c2.7-0.7,5.4-1.4,8.1-2.1
			c3.7-0.3,7.3-0.5,11-0.8c1.6,0.3,3.4,0.2,4.7,1C463.8,224,461.3,223.7,461,224.2z"/>
		<path class="st5" d="M467,224.9c0.4,0.3,0.7,0.5,1,0.7c-0.4,0.1-0.9,0.3-1.3,0.3c-0.3,0-0.6-0.2-0.8-0.4
			C466.3,225.4,466.6,225.1,467,224.9z"/>
		<path class="st4" d="M322.1,431.1c0.3,0,0.6-0.1,0.9-0.1c0.4,0.4,0.7,0.8,1.1,1.2c0,1.9,0,3.8,0,5.8c-0.3,0-0.7,0.1-1,0.1
			C322.7,435.7,321.3,433.6,322.1,431.1z"/>
		<path class="st9" d="M194.8,279c-0.3,2.6,1.1,5.4-0.8,7.9c-0.7-1.1-1.8-1.1-2.9-1.1c-0.6-1.3-1.7-1.9-3.1-2.1
			c-0.5-0.8-1.2-0.9-2-0.8c0,0,0,0,0,0c-0.3-0.3-0.7-0.7-1-1c0,0,0,0,0,0c-1.3-2.5-4.1-2.6-6-4.1c0.5-2.8,1.7-5.4,3-8
			c1.3,0.6,2.5,1.3,4,1c0,0,0,0,0,0c0.4,1,0.7,0.7,1.1,0c0.8-0.4,0.9-1.2,0.9-1.9c0.3,0,0.7,0,1,0c0,0,0,0,0,0c0.3,0.3,0.7,0.7,1,1
			c0,0,0,0,0,0c0.3,0.3,0.7,0.7,1,1c0,0,0,0,0,0C190.5,274.5,191.9,277.1,194.8,279z"/>
		<path class="st1" d="M194.8,279c-2.9-1.9-4.3-4.5-3.8-8c1.4,0.1,2.1-0.5,2.2-1.9c0.6,0,1.2,0,1.7,0c0,0.3,0.1,0.6,0.1,0.9
			c0.3,2.7,0.7,5.3,1,8c0,0.3-0.1,0.7-0.1,1C195.6,279,195.2,279,194.8,279z"/>
		<path class="st2" d="M194.9,269.1c-0.6,0-1.2,0-1.7,0c-0.6-4.1-1.1-8.1-1.8-12.2c-0.2-1.5-0.5-2.7,1.5-2.8c0.5,2.4-1,5.3,2.1,6.9
			C194.3,263.7,194.5,266.4,194.9,269.1z"/>
		<path class="st2" d="M182,268c-2-0.1-3.1-1.4-4-3C180.3,264.8,181.8,265.5,182,268z"/>
		<path class="st2" d="M186,271c-1.5,0.3-2.7-0.4-4-1c0-0.7,0-1.3,0-2C183.5,268.8,185.3,269.2,186,271z"/>
		<path class="st2" d="M186.1,263.9c1.2,0.6,1.8,1.7,2,3c0,0-0.3,0.3-0.3,0.3c-1.7-0.3-1.8-1.7-1.9-3.1
			C185.9,264.1,186.1,263.9,186.1,263.9z"/>
		<path class="st7" d="M188.1,250.9c0.6,0.1,1.4,0.2,1.4,1c0,0.2-0.4,0.6-0.6,0.6c-0.8-0.1-0.9-0.8-1-1.4
			C187.9,251.1,188.1,250.9,188.1,250.9z"/>
		<path class="st2" d="M184.1,261.9c1.3,0,1.9,0.8,2,2c0,0-0.2,0.2-0.2,0.2C184.6,264,184,263.2,184.1,261.9L184.1,261.9z"/>
		<path class="st7" d="M186,249.1c-0.2-0.4-0.5-0.8-0.7-1.1c0,0,0.2-0.2,0.4-0.3c0.2,0.4,0.3,0.9,0.5,1.3L186,249.1z"/>
		<path class="st2" d="M181.9,258.8c0.8,0.5,1.2,1.2,1.2,2.2c0,0-0.1,0.1-0.1,0.1c-0.9-0.5-1-1.3-1.2-2.2L181.9,258.8z"/>
		<path class="st2" d="M189,269c-0.3,0-0.7,0-1,0c-0.1-0.6-0.1-1.2-0.2-1.9c0,0,0.3-0.3,0.3-0.3C188.9,267.4,189.1,268.1,189,269z"
			/>
		<path class="st7" d="M187.1,249.9c0.3,0.3,0.7,0.7,1,1c0,0-0.2,0.2-0.2,0.2c-0.3-0.3-0.7-0.7-1-1
			C186.9,250.1,187.1,249.9,187.1,249.9z"/>
		<path class="st7" d="M186.1,249c0.3,0.3,0.7,0.7,1,1c0,0-0.1,0.1-0.1,0.1c-0.3-0.3-0.6-0.7-1-1C186,249.1,186.1,249,186.1,249z"/>
		<path class="st7" d="M183,243c0.1,0.1,0.3,0.3,0.4,0.4C183.3,243.3,183.1,243.1,183,243C183,243,183,243,183,243z"/>
		<path class="st7" d="M182,241.9c0.3,0.3,0.7,0.7,1,1c0,0,0,0,0,0C182.6,242.7,182.3,242.3,182,241.9
			C181.9,242,182,241.9,182,241.9z"/>
		<path class="st2" d="M187.1,271c-0.4,0.7-0.7,1.1-1.1,0C186.4,271,186.7,271,187.1,271z"/>
		<path class="st2" d="M191,271c-0.3-0.3-0.7-0.7-1-1C190.3,270.3,190.7,270.7,191,271z"/>
		<path class="st2" d="M190,270c-0.3-0.3-0.7-0.7-1-1C189.3,269.3,189.7,269.7,190,270z"/>
		<path class="st2" d="M184,262c-0.3-0.3-0.7-0.6-1-1c0,0,0.1-0.1,0.1-0.1C183.4,261.3,183.7,261.6,184,262
			C184.1,261.9,184,262,184,262z"/>
		<path class="st5" d="M181.8,258.9c-0.1-0.1-0.2-0.2-0.3-0.2c0.1,0,0.3,0.1,0.4,0.1C181.9,258.8,181.8,258.9,181.8,258.9z"/>
		<path class="st14" d="M162,382c0.3-0.3,0.7-0.7,1-1C162.7,381.3,162.3,381.7,162,382z"/>
		<path class="st14" d="M160.9,383c0.4-0.3,0.7-0.7,1.1-1C161.6,382.3,161.3,382.7,160.9,383z"/>
		<path class="st14" d="M235,253c-1.5,2.9-4.5,4.2-7,6c0-4.1,3.3-5.8,6-8C234.1,251.8,234.1,252.6,235,253L235,253z"/>
		<path class="st2" d="M235,253c-0.9-0.4-0.9-1.2-1-2c0,0,0,0,0,0c0.3-0.3,0.7-0.7,1-1c0,0,0,0,0,0c0.3,0,0.7,0,1,0
			c0,0.4,0,0.8,0,1.2C235.7,251.8,235.3,252.4,235,253z"/>
		<path class="st14" d="M236,250c-0.3,0-0.7,0-1,0c-0.1-0.9,0.2-1.6,1-2.1l0.2,0.2C236.1,248.7,236,249.4,236,250z"/>
		<path class="st14" d="M235,250c-0.3,0.3-0.7,0.7-1,1C234.3,250.7,234.7,250.3,235,250z"/>
		<path class="st14" d="M235.9,247.9c0.3-0.3,0.7-0.7,1-1l0.2,0.2c-0.3,0.3-0.7,0.7-1,1C236.1,248.1,235.9,247.9,235.9,247.9z"/>
		<path class="st14" d="M236.9,246.9c0.2-0.1,0.4-0.3,0.6-0.4c-0.1,0.2-0.3,0.4-0.4,0.6C237.1,247.1,236.9,246.9,236.9,246.9z"/>
		<path class="st2" d="M444,245.9c-3.4,1.5-6.3-0.1-9.2-1.5c-1.9-0.9-3.3-2.7-5.7-2.6c0.1-1.2,0.7-2,1.9-1.6
			c4.2,1.4,8.5,0.7,12.8,0.6C443.9,242.5,444,244.2,444,245.9z"/>
		<path class="st7" d="M446,222.6c-2.7,0.7-5.4,1.5-8.1,2.1c-1.5,0.4-3.2,1-2.8-1.7c1.6-1,2-2,0-3c-0.3,0-0.6-0.1-0.9-0.2
			c1.2-4.1,4.8-7,5.4-11.3c1.8-2.5,3.7-4.9,5.5-7.4c2.1,4.4,0.5,9.2,1.1,13.7c-1.8,3.6-7,2-9.1,5.8c3.6,0.4,6-2.3,9-2.4
			C446,219.6,446,221.1,446,222.6z"/>
		<path class="st14" d="M446,218.2c-3.1,0.1-5.4,2.8-9,2.4c2.1-3.8,7.3-2.2,9.1-5.8c1.2,0.3,2.7,0,3.4,1.7
			C448.3,217,447.2,217.6,446,218.2z"/>
		<path class="st8" d="M445,199c-0.2-0.9,0-1.7,1-2C446.3,198,446.1,198.7,445,199z"/>
		<path class="st8" d="M446,197c0-0.4,0-0.8,0-1.2c0.2,0.3,0.5,0.5,0.7,0.8C446.5,196.8,446.2,196.9,446,197z"/>
		<path class="st2" d="M430.9,291c-0.8-0.2-1.6-0.3-1.7-1.3c-0.2-1.3,0.8-1.6,1.7-1.8C430.9,289,430.9,290,430.9,291z"/>
		<path class="st3" d="M353.9,271.9c0.1,0.7-0.2,1.3-0.9,1.6C353.3,273,353.6,272.4,353.9,271.9z"/>
		<path class="st2" d="M197,255c-0.2,2.2,0.8,4.7-2,6C195.2,258.8,195.6,256.7,197,255z"/>
		<path class="st2" d="M198,251c-0.2,1.4,0.5,3-1,4C197.1,253.6,196.5,252.1,198,251z"/>
		<path class="st13" d="M198.4,248.7c0.1,0,0.3,0,0.3,0c0.1,0.1,0.1,0.2,0.1,0.4c-0.2,0-0.3,0-0.5-0.1
			C198.3,249,198.3,248.8,198.4,248.7z"/>
		<path class="st7" d="M451,232.1c0,1.6,0,3.2,0.1,4.7c-4,0.7-8,1.5-12.1,2.2c-0.3-1.6-0.6-3.2-0.9-4.9
			C442.3,233.1,446.5,231.6,451,232.1z"/>
		<path class="st2" d="M438.1,234.1c0.3,1.6,0.6,3.2,0.9,4.9c-4.5,1.6-8.5-2-12.9-1.1C429.6,235.3,433.9,234.9,438.1,234.1z"/>
		<path class="st2" d="M424,238c0.2-0.5,0.4-1.1,0.5-1.6c0.2,0.5,0.4,1.1,0.5,1.6C424.7,238,424.4,238,424,238z"/>
		<path class="st13" d="M423,283.9c-1.7,0.1-3.3,0.1-5,0.2c-0.5-12.6-4.1-24.7-5.7-37.1c-1-7.5-3.4-14.7-3.4-22.4
			c0.4-0.8,0.8-1.7,1.3-2.5c1.9,0.2,2.4,1.7,2.7,3.1c2.8,16.7,5.4,33.4,8.2,50.1C421.5,278.2,422.3,281,423,283.9z"/>
		<path class="st13" d="M427,310.2c-1.3-0.4-2.6-0.8-4-1.2c-2.7-7.4-1.8-15.4-4-22.9c1.3-0.1,2.6-0.3,3.9-0.4
			C424.3,293.8,425.6,302,427,310.2z"/>
		<path class="st14" d="M411,219c0.3-0.3,0.7-0.7,1-1C411.7,218.3,411.3,218.7,411,219z"/>
		<path class="st13" d="M401.2,229.5c-1.9,3.3-4.1,6.3-7.1,8.7c-2.1-8-3.1-16.4-6.1-24.2c1.6-6.5,3.4-12.9,6-19
			c3.4,7.1,3.5,15,4.9,22.5C399.6,221.4,400.3,225.5,401.2,229.5z"/>
		<path class="st2" d="M427.1,229c-0.3,2.7,1.3,1.5,2.5,1.2c3.9-1.1,7.3-3.8,11.5-4.2c0,1.7,0,3.3,0,5c-4.7,1.5-9.4,3-14.5,3
			c-1.5,0-2.4-0.2-1.5-1.9c0-0.5,0-1,0-1.5c0.3-0.5,0.7-1,1-1.5c0,0,0-0.1,0-0.1C426.4,229,426.7,229,427.1,229z"/>
		<path class="st7" d="M441,231c0-1.7,0-3.3,0-5c3.7-0.6,7.2-2,11-1.9c0.3,2,1.4,3.9,0.8,6C448.9,229.6,445,230.7,441,231z"/>
		<path class="st12" d="M425.1,230.6c0,0.5,0,1,0,1.5C424.2,231.6,424.6,231.1,425.1,230.6z"/>
		<path class="st7" d="M387.9,213.9c3,7.8,4,16.2,6.1,24.2c-0.8,1.5-1.4,3-3,3.9c-3-0.7-2.8-3.1-3.1-5.4c-0.3-3.2-0.5-6.5-1.2-9.6
			c-0.3-1.5-0.3-3.8-2.8-4C385.3,220,386.6,216.9,387.9,213.9z"/>
		<path class="st2" d="M433,224.5c0.6,3.3-2.7,2.4-4,3.6c-0.3-0.4-0.6-0.7-0.8-1.1C429.8,226.2,431.4,225.4,433,224.5z"/>
		<path class="st14" d="M428.2,227.1c0.3,0.4,0.6,0.7,0.8,1.1c-0.5,0.7-1.2,0.9-2,0.9c-0.3,0-0.7,0-1,0
			C426.4,228,427.1,227.3,428.2,227.1z"/>
		<path class="st14" d="M426,226c0.5-0.9,0.9-1.7,2.1-1.6c0.1,0,0.3,0.3,0.3,0.4C428,225.8,427,225.9,426,226
			C426,226,426,226,426,226z"/>
		<path class="st14" d="M434.1,219.8c0.3,0.1,0.6,0.2,0.9,0.2c-0.1,0.4-0.4,1.1-0.4,1.1C433.8,220.9,434.2,220.3,434.1,219.8z"/>
		<path class="st9" d="M168.9,332.9c-0.8,0-1.6,0.2-2,1c-1.4,0-2.7,0.4-3.9,1.1c-1.9-1.9-1-3.9-0.1-5.9c1-2.3,2.1-4.5,2-7.1
			c4.2-2,8.5-3.8,13-5.1c-0.2,3.9-3.1,7.1-3.1,11.1c-1.2,0.8-2.9,1.1-3,3c0,0,0,0,0,0C170.5,330.9,169.1,331.1,168.9,332.9z"/>
		<path class="st9" d="M174,295c2.7,0.3,5.3,0.7,8,1c0.9,0.1,1.9,0.1,2.8,0.2c0.1,0.3,0.1,0.6,0.2,0.8c0.8,3.1-2.8,4.3-3.1,6.9
			c-1,0-1.9,0.1-2.9,0.1c-1.7,0.3-3.3,0.5-5,0.8C172.6,301.5,172.8,298.3,174,295z"/>
		<path class="st9" d="M167,307.1c4.1-0.2,8.1-0.5,12-2c0.6,0,1.2,0,1.9,0c1.1,4.2-2.7,7.1-2.9,11c-5.2-0.6-9.1,3.2-14,4
			C163.5,315.4,167.6,311.8,167,307.1z"/>
		<path class="st9" d="M180.1,280.9c1.7,0.2,3.1,1.5,4.9,1.1c0,0,0,0,0,0c0.3,0.3,0.7,0.7,1,1c0,0,0,0,0,0c0.4,1,1.1,1.6,2.1,1.9
			L188,285c0.3,3.7-2,6.6-3,9.9c-1,0-2,0-3-0.1c-2-0.6-4-1.3-6-1.9C176.2,288.5,178,284.7,180.1,280.9z"/>
		<path class="st7" d="M178,316.1c0.2-3.9,4-6.8,2.9-11c1.9,0.3,5-1.5,5.5,1.3c0.3,2.1,0.4,5.6-3.2,6.4c-0.8,0.2-2,0.5-1.6,1.5
			c2.7,7-1.4,10.6-6.7,13.7c0-4,2.9-7.2,3.1-11.1C178,316.6,178,316.4,178,316.1z"/>
		<path class="st2" d="M174.9,328c5.2-3.1,9.4-6.6,6.7-13.7c-0.4-1,0.8-1.3,1.6-1.5c3.6-0.9,3.5-4.3,3.2-6.4c-0.4-2.8-3.5-1-5.5-1.3
			c-0.6,0-1.2,0-1.9,0c0-0.4,0-0.7,0-1.1c1,0,1.9-0.1,2.9-0.1c1.7-0.3,3.5-0.6,5.2-0.8c2.1,1.8,4.6,0.5,6.9,0.9l0,0
			c-0.5,5.7-2.8,10.6-5.2,15.8c-1.8,3.9-2.3,8.6-4.5,12.4c-2.9,4.8-3.5,10.5-6.2,15.2c-4.6,7.9-6.1,17-10,25.1c-1.3,2.6-2.5,5-5,6.6
			c-1.8-2.2,0.2-3.9,0.8-5.7c1.3-4.1,2.8-8.2,4.4-12.6c-2.5,0.2-3.3,2.6-5.3,2.3c0.1-2,1.5-3.1,3-4.1c3.8-0.2,5.5-3,5.8-6
			c0.2-2.5,3.8-5.8-0.8-8c3.2-3.4,5.2-7.5,6.2-12.1c0.2-1.1,1.4-2.2,0.3-3.2c-1.1-1-2.1,0.4-3.1,0.6c-0.8,0.2-1.6,0.4-2.4,0.6
			C172,329,173.8,328.8,174.9,328z"/>
		<path class="st2" d="M182,294.9c1,0,2,0,3,0.1c0,0.3,0,0.6,0.1,1l-0.3,0.3c-0.9-0.1-1.9-0.1-2.8-0.2
			C182,295.6,182,295.2,182,294.9z"/>
		<path class="st6" d="M324.1,437.9c0-1.9,0-3.8,0-5.8C325.6,434.1,325.5,436,324.1,437.9z"/>
		<path class="st7" d="M230,275.1c0,3.7-2.6,6.9-2,10.8c-1.9,0.3-3.7,0.6-5.7,2.2c2,0,3.4,0,4.8,0c0.5,5.8-2.8,10.3-5,15.1
			c-3.8-0.2-7.5-0.4-11.3,0.7c-1.3,0.4-3,0.1-4.4-0.2c-5-1.2-5.3-2.3-1.8-6.2c0.3-0.3,0.3-0.9,0.5-1.4l0,0c2.5,0,4.6-0.9,6-3
			c0.8,0,1.6-0.2,2-1c0.4-0.1,0.8-0.2,1.3-0.3c-0.1-0.2-0.2-0.3-0.3-0.5c-0.3,0.3-0.6,0.5-0.9,0.8c-0.8,0-1.6,0.1-2,1
			c-2.3-0.3-4,1.3-6,2l0,0c0-4.4,3.2-7.1,5.9-9.9c1-1.1,2.5-1.6,3.1-3.1l0,0c1.5,0,2.5-0.6,3-2c0,0,0,0,0,0c0.9,0,1.7,0,2-1
			c0,0,0,0,0,0c0.9,0,1.7-0.1,2-1c0,0,0,0,0,0c0.9,0,1.7,0,2-1c0,0,0,0,0,0c1.1,0.1,2.3,0.2,3-1c0,0,0,0,0,0c0.3-0.3,0.7-0.7,1-1
			c0,0,0,0,0,0C228,275,229,275,230,275.1z"/>
		<path class="st7" d="M225,308c-3.4,3.2-3.4,8.1-5.8,11.8c-0.7,1.1-0.8,2.5-2.2,3.1c-1.3-0.5-2.5-1.5-4.1-0.9c0,0,0,0,0,0
			c0.2-2.2-1.8-2.5-3-3.3c-2.9-2-6-3.8-9-5.7c0,0,0,0,0,0c-0.4-1.6-0.8-3.2-1-4.8c-0.4-3,0.1-4.6,4-3.6c2.9,0.8,6.4,0.9,9.3,0.1
			C218.1,303.4,221.7,304.8,225,308z"/>
		<path class="st2" d="M195.1,326.7c-1.7,5.3-3.4,10.6-6.2,15.4c-2.5-2.7-3.1-5.4-1.2-9c2.2-4.2,3.7-8.8,5.6-13.5
			C195.6,321.8,194.8,324.3,195.1,326.7z"/>
		<path class="st2" d="M185,297c-0.1-0.3-0.1-0.5-0.2-0.8c0,0,0.3-0.3,0.3-0.3c6.4,1.2,6.4-4.1,7.8-7.8c0.4,0,0.7-0.1,1.1-0.1
			c1.3,2.3,1.9,4.8,2.1,7.5c0.4,4.8-1.4,7.2-6.2,7.4C191,298.7,189.1,296.9,185,297z"/>
		<path class="st7" d="M185,297c4.1-0.1,6,1.7,5,5.9c-1,0-1.9,0.1-2.9,0.1c-1.7,0.3-3.5,0.6-5.2,0.8
			C182.2,301.3,185.8,300.1,185,297z"/>
		<path class="st1" d="M194,288c-0.4,0-0.7,0.1-1.1,0.1c-0.6-0.7-1.3-1.4-1.9-2l0.1-0.2c1.1,0,2.2,0,2.9,1.1
			C194,287.3,194,287.6,194,288z"/>
		<path class="st7" d="M214,282c-0.4-0.2-1.2-0.4-1.2-0.5c0-1.2,1.1-1.4,2-1.7c0,0,0.3,0.4,0.3,0.4C214.7,280.8,214.4,281.4,214,282
			L214,282z"/>
		<path class="st2" d="M194,304c0.1-0.1,0.2-0.3,0.2-0.4C194.2,303.7,194.1,303.9,194,304C194,304,194,304,194,304z"/>
		<path class="st7" d="M205,296c-0.6-0.3-0.8-0.7,0-1c0,0,0,0,0,0C205,295.3,205,295.7,205,296L205,296z"/>
		<path class="st13" d="M393.8,243.9c1.9-3.4,4.1-6.6,7-9.1c3.9,10.1,5,20.7,6.2,31.3c-2.5,1.1-5.2,1.7-8,1.8
			C397.6,259.8,397.4,251.5,393.8,243.9z"/>
		<path class="st13" d="M409,283.8c-2.1,0.5-4-0.4-6-0.9c1.1-4.3-2.3-7.8-2-12c2.3-0.8,4.6-1.5,6.9-2.3
			C408.3,273.8,408.6,278.8,409,283.8z"/>
		<path class="st14" d="M407.9,268.7c-2.3,0.8-4.6,1.5-6.9,2.3c-0.7,0-1.3,0-2,0c-1.7,0-4.6,2-4.7-1.2c-0.1-3,3.1-1.2,4.7-1.9
			c2.8-0.1,5.4-0.8,8-1.8c2.2,0.4,4.1-1.8,6.6-0.7C412,267.6,409.5,267.4,407.9,268.7z"/>
		<path class="st7" d="M412.9,341.2c-2.8-1.1-4.9-3-7-5c0.1-9.8-3.3-19.1-4.3-28.7c-0.2-1.6-1.2-3.2,0.5-4.5c2.3,0.7,4.3,2,6,3.8
			c-0.1,10.3,3,20,4.5,30.1C412.7,338.3,413,339.7,412.9,341.2z"/>
		<path class="st13" d="M413.9,306.3c-2.8-0.1-4.6-2.2-6.8-3.4c0-5.7-2.3-11.2-2.1-16.9c2,0.1,4,0.1,6.1,0.2
			C412,292.9,412.9,299.6,413.9,306.3z"/>
		<path class="st9" d="M407.9,268.7c1.6-1.3,4.1-1.1,5.7-3.3c-2.5-1.1-4.4,1.1-6.6,0.7c-1.2-10.6-2.3-21.2-6.2-31.3
			c2.3-3.7,4.9-7.2,8.1-10.2c0,7.6,2.4,14.9,3.4,22.4c1.6,12.4,5.3,24.5,5.7,37.1c-3-0.1-6-0.2-9-0.2
			C408.6,278.8,408.3,273.8,407.9,268.7z"/>
		<path class="st9" d="M413.9,306.3c-1-6.7-1.9-13.4-2.9-20.1c2.7,0,5.3-0.1,8-0.1c2.2,7.5,1.3,15.5,4,22.9
			C419.7,308.8,416.8,307.5,413.9,306.3z"/>
		<path class="st14" d="M201,313c3,1.9,6.1,3.6,9,5.7c1.2,0.8,3.2,1.2,3,3.3C208,320.3,203.3,318.3,201,313z"/>
		<path class="st14" d="M227,288c-1.4,0-2.8,0-4.8,0c2.1-1.6,3.9-1.9,5.7-2.2c2.6,0.7,5.6-1,8.1,1.2C233,287.5,229.8,286,227,288z"
			/>
		<path class="st14" d="M236,287c1.4,0.1,3-0.5,4,1C238.6,288,237,288.5,236,287z"/>
		<path class="st14" d="M230,310c-0.9,0.1-1.6-0.1-2-1C228.9,308.9,229.6,309,230,310z"/>
		<path class="st14" d="M228,309c-0.3-0.3-0.6-0.6-1-1C227.3,308.3,227.7,308.7,228,309z"/>
		<path class="st14" d="M230,275.1c-1,0-2,0-3,0c1.3-1.6,3-2.1,5-2C231.7,274.1,230.8,274.5,230,275.1z"/>
		<path class="st14" d="M214,282c0.4-0.6,0.7-1.3,1.1-1.9c0.6,0,1.3-0.1,1.9-0.1C216.5,281.4,215.5,282,214,282z"/>
		<path class="st14" d="M226,276c-0.7,1.2-1.9,1.1-3,1C223.7,275.8,224.9,275.9,226,276z"/>
		<path class="st14" d="M219,279c-0.4,1-1.2,1.1-2,1C217.4,279.2,218.2,279,219,279z"/>
		<path class="st14" d="M221,278c-0.4,0.9-1.2,1.1-2,1C219.4,278.1,220.2,278,221,278z"/>
		<path class="st14" d="M223,277c-0.4,1-1.2,1.1-2,1C221.4,277.1,222.2,277,223,277z"/>
		<path class="st14" d="M227,275c-0.3,0.3-0.7,0.7-1,1C226.3,275.7,226.7,275.3,227,275z"/>
		<path class="st1" d="M188,283.8c1.4,0.2,2.5,0.7,3.1,2.1c0,0-0.1,0.2-0.1,0.2c-1-0.3-2-0.7-3-1c0,0,0.1-0.1,0.1-0.1
			C188.1,284.5,188,284.2,188,283.8z"/>
		<path class="st2" d="M188,283.8c0,0.4,0,0.7,0.1,1.1c-1-0.3-1.7-0.9-2.1-1.9C186.8,282.9,187.6,283,188,283.8z"/>
		<path class="st2" d="M186,283c-0.3-0.3-0.7-0.7-1-1C185.3,282.3,185.7,282.7,186,283z"/>
		<path class="st13" d="M188,285c1,0.3,2,0.7,3,1c0.6,0.7,1.3,1.4,1.9,2c-1.5,3.8-1.4,9.1-7.8,7.8c0-0.3-0.1-0.6-0.1-1
			C186,291.6,188.3,288.7,188,285z"/>
		<path class="st14" d="M205,296c0-0.3,0-0.7,0-1c2-0.7,3.7-2.3,6-2l0,0C209.6,295.2,207.5,296,205,296z"/>
		<path class="st14" d="M211,293c0.4-0.9,1.2-1,2-1l0,0C212.6,292.8,211.8,293,211,293C211,293,211,293,211,293z"/>
		<path class="st14" d="M213,292c0.3-0.3,0.6-0.5,0.9-0.8c0.1,0.2,0.2,0.3,0.3,0.5C213.8,291.8,213.4,291.9,213,292
			C213,292,213,292,213,292z"/>
	</g>
</g>
</svg>
