<svg id="Layer_1" data-name="Layer 1" xmlns="http://www.w3.org/2000/svg" viewBox="0 0 289.3 28.5"><title>bwater-logo</title><path d="M1324.2,1925.2h-6.5l-6-11.2H1305v11.2h-5.7v-28.5h14.2c6.5,0,9.6,2.6,9.6,8.6,0,4.4-2,7.2-5.5,8Zm-12.2-23.4h-7v7.2h7c3.4,0,5.1-.7,5.1-3.6S1315.4,1901.8,1312,1901.8Zm-35.7,20.9c-2.8-2.3-4.2-6.1-4.2-11.2,0-10.1,4.1-14.8,12.9-14.8h9.6v5h-9.4c-4.1,0-6.2,2.1-6.5,6.6h15.9v5h-15.9c0,5.1,2,7,6.5,7h9.4v5h-9.7C1281.5,1925.2,1279,1924.9,1276.3,1922.7Zm-13.7,2.5h-5.9v-23.5h-8.8v-5h23.6v5h-8.9Zm-16.5,0-2.5-6.8h-11.9l-2.4,6.8h-6.1l11.6-28.5h6.1l11.6,28.5Zm-8.5-22.8-4,11h8.1Zm-26.2,22.8-5.8-21.3-5.1,21.3h-7l-9.1-28.5h6.2l6.3,21.9,5.3-21.9h6.8l6.1,21.9,5.9-21.9h5.9l-8.4,28.5Zm-48.6-2.5c-2.8-2.3-4.2-6.1-4.2-11.2,0-10.1,4.1-14.8,12.9-14.8h9.6v5h-9.4c-4.1,0-6.2,2.1-6.5,6.6H1181v5h-15.9c0,5.1,2,7,6.5,7h9.4v5h-9.7C1168,1925.2,1165.4,1924.9,1162.8,1922.7Zm-28.7,0c-2.8-2.3-4.2-6.1-4.2-11.2,0-10.1,4.1-14.8,12.9-14.8h12.4v4.9h-12.4c-4.6,0-6.5,3.1-6.5,9.6s1.8,8.9,6.5,8.9h6.5v-6.7h-7.7v-5h13.6v16.9h-12.4C1139.4,1925.2,1136.8,1925,1134,1922.7Zm-19.8,2.5h-12.7v-28.5h12.5c8.8,0,12.9,4.7,12.9,14.8,0,5.2-1.4,8.9-4.2,11.2S1117.6,1925.2,1114.2,1925.2Zm-.3-23.6h-6.7v18.6h6.7c5.1,0,6.7-2.3,6.7-9.3S1119.1,1901.6,1114,1901.6Zm-22.9-5h6v28.5h-6Zm-9.5,28.5-6-11.2h-6.8v11.2h-5.7v-28.5h14.2c6.5,0,9.6,2.6,9.6,8.6,0,4.4-2,7.2-5.5,8l6.8,11.9Zm-5.7-23.4h-7v7.2h7c3.4,0,5.1-.7,5.1-3.6S1079.3,1901.8,1075.8,1901.8Zm-26,23.4h-15v-28.5h14c3.2,0,5.5.3,7,1.3a7.7,7.7,0,0,1-1,12.9,6.4,6.4,0,0,1,4.1,6.5C1059.1,1922.8,1056.1,1925.2,1049.9,1925.2Zm-.9-23.4h-8.4v6.6h8.4c2.6,0,3.8-1,3.8-3.3S1051.6,1901.8,1049,1901.8Zm.1,11.6h-8.5v6.7h8.5c2.6,0,3.8-1,3.8-3.3S1051.6,1913.4,1049.1,1913.4Z" transform="translate(-1034.9 -1896.7)" style="fill:#ffffff;fill-rule:evenodd"/></svg>
